<svg width="36" height="36" fill="none" xmlns="http://www.w3.org/2000/svg"><g clip-path="url(#a)"><mask id="b" style="mask-type:luminance" maskUnits="userSpaceOnUse" x="0" y="0" width="36" height="36"><path d="M0 0h36v36H0V0z" fill="#fff"/></mask><g mask="url(#b)"><mask id="c" style="mask-type:luminance" maskUnits="userSpaceOnUse" x="0" y="0" width="36" height="36"><path d="M0 0h36v36H0V0z" fill="#fff"/></mask><g mask="url(#c)" stroke-width="2" stroke-linecap="round" stroke-linejoin="round"><path d="M3 16.98h15m-2.908 2.5L18 16.98l-2.908-2.5" stroke="#175CFF"/><path d="M5 13.48v-4h18.488v16.612m0 0H12.926m10.562 0v-6.39m0 6.39h1.837m-12.399 0c0 1.319-1.08 2.388-2.412 2.388-1.332 0-2.412-1.07-2.412-2.388m4.824 0c0-1.32-1.08-2.39-2.412-2.39-1.332 0-2.412 1.07-2.412 2.39m0 0H5V20.48m25.162 5.611H32v-6.389m0 0h-8.512m8.512 0l-2.212-4.532a3.245 3.245 0 00-2.94-1.853h-3.36v6.386m6.683 6.388c0 1.32-1.08 2.389-2.412 2.389-1.332 0-2.412-1.07-2.412-2.389 0-1.319 1.08-2.388 2.412-2.388 1.332 0 2.412 1.069 2.412 2.388z" stroke="#0A083B"/></g></g></g><defs><clipPath id="a"><path fill="#fff" d="M0 0H36V36H0z"/></clipPath></defs></svg>