<svg width="36" height="36" fill="none" xmlns="http://www.w3.org/2000/svg"><g clip-path="url(#a)"><mask id="b" style="mask-type:luminance" maskUnits="userSpaceOnUse" x="0" y="0" width="36" height="36"><path d="M0 0h36v36H0V0z" fill="#fff"/></mask><g mask="url(#b)"><mask id="c" style="mask-type:luminance" maskUnits="userSpaceOnUse" x="0" y="0" width="36" height="36"><path d="M0 0h36v36H0V0z" fill="#fff"/></mask><g mask="url(#c)" stroke-width="2" stroke-linejoin="round"><path d="M18 15.833L5 10.48v15.647l13 5.353V15.833zM31 10.48v15.647L18 31.48" stroke="#0A083B"/><path d="M5 10.48l13-6 13 6" stroke="#0A083B" stroke-linecap="round"/><path d="M23.009 13.454L9.628 8.017l4.18-1.704 13.387 5.44v9.21l-2.093 2.524-2.093-.823v-9.21z" stroke="#175CFF" stroke-linecap="round"/></g></g></g><defs><clipPath id="a"><path fill="#fff" d="M0 0H36V36H0z"/></clipPath></defs></svg>