<svg width="36" height="36" fill="none" xmlns="http://www.w3.org/2000/svg"><path fill-rule="evenodd" clip-rule="evenodd" d="M14.276 6.963L5.61 10.638a1 1 0 00-.61.92v10.527l2-.757v-8.26l9.976 4.23V29.97l-5.379-2.28-2.706 1.024 8.694 3.687a1 1 0 00.78 0l8.711-3.679-2.71-1.026-5.39 2.276V17.3L29 13.066v8.282l2 .758V11.558a1 1 0 00-.611-.92l-8.535-3.606v2.172l5.576 2.354-9.454 3.993-9.414-3.993 5.714-2.423V6.963z" fill="#0A083B"/><path d="M18.06 11.13V1.928m0 0l2.16 2.631m-2.16-2.63l-2.16 2.63M26.004 24.165l8.545 3.414m0 0l-3.245 1.03m3.245-1.03l-1.642-2.983M9.99 24.165l-8.546 3.414m0 0l3.245 1.03m-3.245-1.03l1.642-2.983" stroke="#175CFF" stroke-width="2" stroke-linecap="round" stroke-linejoin="round"/></svg>