<svg width="36" height="36" fill="none" xmlns="http://www.w3.org/2000/svg"><circle cx="4" cy="4" r="3" transform="matrix(-1 0 0 1 32.89 14.48)" stroke="#0A083B" stroke-width="2"/><circle cx="7" cy="18.48" r="3" stroke="#175CFF" stroke-width="2"/><path d="M10 29.523v1-1zm3.92 0v-1 1zm4.79-14.043a1 1 0 110 2v-2zm0-12a1 1 0 110 2v-2zm0 23a1 1 0 110 2v-2zm-2.837-21l-.816-.578.816.578zm0 12l-.816-.578.816.578zm0 11.022l-.822-.57.822.57zM13.938 7.48H10v-2h3.938v2zM10 28.523h3.92v2H10v-2zM9.491 17.48h4.447v2H9.491v-2zm8.317-2h.901v2h-.901v-2zm0-12h.901v2h-.901v-2zM8 20.48v6.043H6V20.48h2zm0-11v6H6v-6h2zm9.826 17h.883v2h-.883v-2zm-.018-21c-.445 0-.862.216-1.12.578l-1.63-1.156a3.372 3.372 0 012.75-1.422v2zm0 12c-.445 0-.862.216-1.12.579l-1.63-1.157a3.372 3.372 0 012.75-1.422v2zm-3.87 0c.445 0 .862-.215 1.12-.578l1.63 1.157a3.372 3.372 0 01-2.75 1.421v-2zm-.018 11.043c.451 0 .874-.22 1.131-.591l1.644 1.14a3.377 3.377 0 01-2.775 1.451v-2zM10 7.48a2 2 0 00-2 2H6a4 4 0 014-4v2zm5.051 20.451a3.377 3.377 0 012.775-1.451v2c-.452 0-.874.221-1.131.592l-1.644-1.14zM13.938 5.48c.445 0 .862-.216 1.12-.578l1.63 1.156a3.372 3.372 0 01-2.75 1.422v-2zM10 30.523a4 4 0 01-4-4h2a2 2 0 002 2v2z" fill="#175CFF"/><path d="M25.71 6.48v-1 1zm-3.92 0v1-1zM17 21.523a1 1 0 110-2v2zm0 11a1 1 0 110-2v2zm0-23a1 1 0 110-2v2zm2.837 21l.815.579-.816-.579zm0-11l.815.579-.816-.579zm0-12.021l.821.57-.822-.57zm1.934 21.021h3.938v2h-3.938v-2zM25.71 7.48h-3.92v-2h3.92v2zm.51 12.043H21.77v-2h4.447v2zm-8.318 2h-.9v-2h.9v2zm0 11h-.9v-2h.9v2zm9.808-17V9.48h2v6.043h-2zm0 11v-6h2v6h-2zm-9.825-17H17v-2h.884v2zm.018 21c.444 0 .861-.215 1.119-.578l1.631 1.157a3.372 3.372 0 01-2.75 1.421v-2zm0-11c.444 0 .861-.215 1.119-.578l1.631 1.157a3.372 3.372 0 01-2.75 1.421v-2zm3.87 0c-.445 0-.862.216-1.12.579l-1.631-1.157a3.372 3.372 0 012.75-1.422v2zm.017-12.043c-.451 0-.874.221-1.131.592l-1.643-1.14a3.377 3.377 0 012.774-1.452v2zm3.92 21.043a2 2 0 002-2h2a4 4 0 01-4 4v-2zM20.658 8.072a3.377 3.377 0 01-2.774 1.451v-2c.451 0 .874-.22 1.13-.591l1.644 1.14zm1.113 22.451c-.444 0-.861.216-1.119.579l-1.631-1.157a3.372 3.372 0 012.75-1.422v2zM25.71 5.48a4 4 0 014 4h-2a2 2 0 00-2-2v-2z" fill="#0A083B"/></svg>