<svg width="36" height="36" fill="none" xmlns="http://www.w3.org/2000/svg"><path d="M18 18.914c1.472 0 2.665 1.149 2.665 2.566 0 1.417-1.193 2.566-2.665 2.566s-2.665-1.149-2.665-2.566c0-1.417 1.193-2.566 2.665-2.566zm6.516 3.832l-.918-.51a5.283 5.283 0 000-1.512l.918-.51a.914.914 0 00.354-1.274l-1.15-1.92a.989.989 0 00-1.323-.341l-.919.51a5.702 5.702 0 00-1.359-.757v-1.02c0-.514-.433-.932-.968-.932h-2.302c-.535 0-.968.418-.968.933v1.02c-.488.19-.945.444-1.36.756l-.918-.51a.989.989 0 00-1.322.341l-1.151 1.92a.914.914 0 00.354 1.274l.918.51a5.272 5.272 0 000 1.512l-.918.51a.914.914 0 00-.354 1.274l1.15 1.92a.989.989 0 001.323.341l.919-.51c.414.311.871.566 1.359.756v1.02c0 .515.433.933.968.933h2.302c.535 0 .968-.418.968-.933v-1.02c.488-.19.945-.445 1.36-.757l.918.511a.989.989 0 001.322-.341l1.151-1.92a.914.914 0 00-.354-1.274z" stroke="#175CFF" stroke-width="1.561" stroke-linecap="round" stroke-linejoin="round"/><path d="M30 31.48V11.864L17.95 5.48 6 11.864V31.48" stroke="#0A083B" stroke-width="2" stroke-linecap="round" stroke-linejoin="round"/></svg>