<?xml version="1.0" encoding="UTF-8"?>
<svg width="60px" height="54px" viewBox="0 0 60 54" version="1.1" xmlns="http://www.w3.org/2000/svg" xmlns:xlink="http://www.w3.org/1999/xlink">
    <!-- Generator: Sketch 58 (84663) - https://sketch.com -->
    <title>Group 22</title>
    <desc>Created with Sketch.</desc>
    <g id="Product" stroke="none" stroke-width="1" fill="none" fill-rule="evenodd">
        <g transform="translate(-697.000000, -8193.000000)" id="02-3-Col-Features">
            <g transform="translate(140.000000, 8191.000000)">
                <g id="02" transform="translate(400.000000, 1.000000)">
                    <g id="Group-22" transform="translate(157.000000, 0.000000)">
                        <g id="storage-unit" fill="#175CFF" fill-rule="nonzero">
                            <path d="M45,13.0000013 C44.8574931,12.9997704 44.7166812,12.969085 44.587,12.91 L23,3.1 L1.414,12.91 C0.911144735,13.1386459 0.318145886,12.9163553 0.0895,12.4135 C-0.139145886,11.9106447 0.0831447353,11.3176459 0.586,11.089 L22.586,1.089 C22.8490367,0.969369175 23.1509633,0.969369175 23.414,1.089 L45.414,11.089 C45.8433481,11.2833627 46.0787112,11.7511226 45.9789249,12.2117302 C45.8791386,12.6723378 45.471292,13.0007524 45,13.0000013 Z" id="Path"></path>
                            <path d="M31,11 L25,11 L25,17 L21,17 L21,11 L15,11 C14.4477153,11 14,11.4477153 14,12 L14,26 C14,26.5522847 14.4477153,27 15,27 L31,27 C31.5522847,27 32,26.5522847 32,26 L32,12 C32,11.4477153 31.5522847,11 31,11 Z" id="Path"></path>
                            <path d="M21,29 L15,29 L15,35 L11,35 L11,29 L5,29 C4.44771525,29 4,29.4477153 4,30 L4,44 C4,44.5522847 4.44771525,45 5,45 L21,45 C21.5522847,45 22,44.5522847 22,44 L22,30 C22,29.4477153 21.5522847,29 21,29 Z" id="Path"></path>
                            <path d="M41,29 L35,29 L35,35 L31,35 L31,29 L25,29 C24.4477153,29 24,29.4477153 24,30 L24,44 C24,44.5522847 24.4477153,45 25,45 L41,45 C41.5522847,45 42,44.5522847 42,44 L42,30 C42,29.4477153 41.5522847,29 41,29 Z" id="Path"></path>
                        </g>
                        <g id="04-Icons/24px/Checkmark_Circle" transform="translate(38.000000, 33.000000)" fill="#FF8030">
                            <path d="M12,2 C6.4771525,2 2,6.4771525 2,12 C2,17.5228475 6.4771525,22 12,22 C17.5228475,22 22,17.5228475 22,12 C21.9839811,6.48380139 17.5161986,2.01601893 12,2 Z M10.3333333,16.5116667 L5.82166667,12 L7,10.8216667 L10.3333333,14.155 L17,7.48833333 L18.1783333,8.66666667 L10.3333333,16.5116667 Z" id="Shape"></path>
                        </g>
                    </g>
                </g>
            </g>
        </g>
    </g>
</svg>