<?xml version="1.0" encoding="UTF-8"?>
<svg width="60px" height="55px" viewBox="0 0 60 55" version="1.1" xmlns="http://www.w3.org/2000/svg" xmlns:xlink="http://www.w3.org/1999/xlink">
    <!-- Generator: Sketch 58 (84663) - https://sketch.com -->
    <title>Group 23</title>
    <desc>Created with Sketch.</desc>
    <g id="Product" stroke="none" stroke-width="1" fill="none" fill-rule="evenodd">
        <g transform="translate(-1097.000000, -8191.000000)" id="02-3-Col-Features">
            <g transform="translate(140.000000, 8191.000000)">
                <g id="03" transform="translate(800.000000, 0.000000)">
                    <g id="Group-23" transform="translate(157.000000, 0.000000)">
                        <g id="lifering" fill="#175CFF" fill-rule="nonzero">
                            <path d="M44,23 C44,11.42 34.579,2 23,2 C11.421,2 2,11.42 2,23 C2,34.58 11.421,44 23,44 C34.579,44 44,34.58 44,23 Z M33.574,20 L41.74,20 C41.896,20.98 42,21.977 42,23 C42,24.023 41.896,25.02 41.739,26 L33.573,26 C33.845,25.045 34,24.041 34,23 C34,21.959 33.845,20.955 33.574,20 Z M23,32 C18.037,32 14,27.962 14,23 C14,18.038 18.037,14 23,14 C27.963,14 32,18.038 32,23 C32,27.962 27.963,32 23,32 Z M26,4.261 L26,12.427 C25.045,12.155 24.041,12 23,12 C21.959,12 20.955,12.155 20,12.426 L20,4.261 C20.98,4.104 21.977,4 23,4 C24.023,4 25.02,4.104 26,4.261 Z M12.426,26 L4.261,26 C4.104,25.02 4,24.023 4,23 C4,21.977 4.104,20.98 4.261,20 L12.427,20 C12.155,20.955 12,21.959 12,23 C12,24.041 12.155,25.045 12.426,26 Z M20,41.739 L20,33.573 C20.955,33.845 21.959,34 23,34 C24.041,34 25.045,33.845 26,33.574 L26,41.74 C25.02,41.896 24.023,42 23,42 C21.977,42 20.98,41.896 20,41.739 Z" id="Shape"></path>
                            <path d="M1,13 C1.553,13 2,12.552 2,12 C2,6.486 6.486,2 12,2 C12.553,2 13,1.552 13,1 C13,0.448 12.553,0 12,0 C5.383,0 0,5.383 0,12 C0,12.552 0.447,13 1,13 Z" id="Path"></path>
                            <path d="M34,2 C39.514,2 44,6.486 44,12 C44,12.552 44.447,13 45,13 C45.553,13 46,12.552 46,12 C46,5.383 40.617,0 34,0 C33.447,0 33,0.448 33,1 C33,1.552 33.447,2 34,2 Z" id="Path"></path>
                            <path d="M12,44 C6.486,44 2,39.514 2,34 C2,33.448 1.553,33 1,33 C0.447,33 0,33.448 0,34 C0,40.617 5.383,46 12,46 C12.553,46 13,45.552 13,45 C13,44.448 12.553,44 12,44 Z" id="Path"></path>
                        </g>
                        <g id="04-Icons/24px/Checkmark_Circle" transform="translate(38.000000, 33.000000)" fill="#FF8030">
                            <path d="M12,2 C6.4771525,2 2,6.4771525 2,12 C2,17.5228475 6.4771525,22 12,22 C17.5228475,22 22,17.5228475 22,12 C21.9839811,6.48380139 17.5161986,2.01601893 12,2 Z M10.3333333,16.5116667 L5.82166667,12 L7,10.8216667 L10.3333333,14.155 L17,7.48833333 L18.1783333,8.66666667 L10.3333333,16.5116667 Z" id="Shape"></path>
                        </g>
                    </g>
                </g>
            </g>
        </g>
    </g>
</svg>