<?xml version="1.0" encoding="UTF-8"?>
<svg width="57px" height="52px" viewBox="0 0 57 52" version="1.1" xmlns="http://www.w3.org/2000/svg" xmlns:xlink="http://www.w3.org/1999/xlink">
    <!-- Generator: Sketch 58 (84663) - https://sketch.com -->
    <title>Group 21</title>
    <desc>Created with Sketch.</desc>
    <g id="Product" stroke="none" stroke-width="1" fill="none" fill-rule="evenodd">
        <g transform="translate(-299.000000, -8193.000000)" id="02-3-Col-Features">
            <g transform="translate(140.000000, 8191.000000)">
                <g id="01" transform="translate(0.000000, 2.000000)">
                    <g id="Group-21" transform="translate(159.000000, 0.000000)">
                        <g id="setup-tools" fill="#175CFF" fill-rule="nonzero">
                            <path d="M39,0 L3,0 C1.34314575,0 0,1.34314575 0,3 L0,39 C0,40.6568542 1.34314575,42 3,42 L39,42 C40.6568542,42 42,40.6568542 42,39 L42,3 C42,1.34314575 40.6568542,0 39,0 Z M7,10 L20,10 C20.5522847,10 21,10.4477153 21,11 C21,11.5522847 20.5522847,12 20,12 L7,12 C6.44771525,12 6,11.5522847 6,11 C6,10.4477153 6.44771525,10 7,10 Z M7,20 L11.141,20 C11.644567,18.0496933 13.5197867,16.7780748 15.5180005,17.0318812 C17.5162143,17.2856876 19.0139833,18.9857319 19.0139833,21 C19.0139833,23.0142681 17.5162143,24.7143124 15.5180005,24.9681188 C13.5197867,25.2219252 11.644567,23.9503067 11.141,22 L7,22 C6.44771525,22 6,21.5522847 6,21 C6,20.4477153 6.44771525,20 7,20 Z M20,32 L7,32 C6.44771525,32 6,31.5522847 6,31 C6,30.4477153 6.44771525,30 7,30 L20,30 C20.5522847,30 21,30.4477153 21,31 C21,31.5522847 20.5522847,32 20,32 Z M35,32 L30.859,32 C30.355433,33.9503067 28.4802133,35.2219252 26.4819995,34.9681188 C24.4837857,34.7143124 22.9860167,33.0142681 22.9860167,31 C22.9860167,28.9857319 24.4837857,27.2856876 26.4819995,27.0318812 C28.4802133,26.7780748 30.355433,28.0496933 30.859,30 L35,30 C35.5522847,30 36,30.4477153 36,31 C36,31.5522847 35.5522847,32 35,32 Z M35,22 L22,22 C21.4477153,22 21,21.5522847 21,21 C21,20.4477153 21.4477153,20 22,20 L35,20 C35.5522847,20 36,20.4477153 36,21 C36,21.5522847 35.5522847,22 35,22 Z M35,12 L30.859,12 C30.355433,13.9503067 28.4802133,15.2219252 26.4819995,14.9681188 C24.4837857,14.7143124 22.9860167,13.0142681 22.9860167,11 C22.9860167,8.98573188 24.4837857,7.28568764 26.4819995,7.03188121 C28.4802133,6.77807479 30.355433,8.04969328 30.859,10 L35,10 C35.5522847,10 36,10.4477153 36,11 C36,11.5522847 35.5522847,12 35,12 L35,12 Z" id="Shape"></path>
                        </g>
                        <g id="04-Icons/24px/Checkmark_Circle" transform="translate(35.000000, 30.000000)" fill="#FF8030">
                            <path d="M12,2 C6.4771525,2 2,6.4771525 2,12 C2,17.5228475 6.4771525,22 12,22 C17.5228475,22 22,17.5228475 22,12 C21.9839811,6.48380139 17.5161986,2.01601893 12,2 Z M10.3333333,16.5116667 L5.82166667,12 L7,10.8216667 L10.3333333,14.155 L17,7.48833333 L18.1783333,8.66666667 L10.3333333,16.5116667 Z" id="Shape"></path>
                        </g>
                    </g>
                </g>
            </g>
        </g>
    </g>
</svg>