<svg width="347" height="121" fill="none" xmlns="http://www.w3.org/2000/svg"><g clip-path="url(#a)"><path d="M40.366 53.014l-.497-.287" stroke="#09073B" stroke-width=".667" stroke-linecap="round" stroke-linejoin="round"/><path d="M38.382 51.863L19.769 41.076" stroke="#09073B" stroke-width=".667" stroke-linecap="round" stroke-linejoin="round" stroke-dasharray="3.15 3.15"/><path d="M19.025 40.646l-.497-.286.497-.286" stroke="#09073B" stroke-width=".667" stroke-linecap="round" stroke-linejoin="round"/><path d="M20.512 39.21l18.612-10.788" stroke="#09073B" stroke-width=".667" stroke-linecap="round" stroke-linejoin="round" stroke-dasharray="3.15 3.15"/><path d="M39.87 27.992l.496-.286" stroke="#09073B" stroke-width=".667" stroke-linecap="round" stroke-linejoin="round"/><path d="M40.364 28.516c.77 0 1.395-.362 1.395-.81 0-.447-.625-.81-1.395-.81s-1.395.363-1.395.81c0 .448.625.81 1.395.81z" fill="#09073B" stroke="#09073B" stroke-width=".667" stroke-linecap="round" stroke-linejoin="round"/><path d="M92.93 76.564l.497.286" stroke="#09073B" stroke-width=".667" stroke-linecap="round" stroke-linejoin="round"/><path d="M94.986 77.754l22.042 12.777" stroke="#09073B" stroke-width=".667" stroke-linecap="round" stroke-linejoin="round" stroke-dasharray="3.29 3.29"/><path d="M117.81 90.982l.494.286-.494.286" stroke="#09073B" stroke-width=".667" stroke-linecap="round" stroke-linejoin="round"/><path d="M116.248 92.46l-22.045 12.774" stroke="#09073B" stroke-width=".667" stroke-linecap="round" stroke-linejoin="round" stroke-dasharray="3.29 3.29"/><path d="M93.427 105.688l-.497.285" stroke="#09073B" stroke-width=".667" stroke-linecap="round" stroke-linejoin="round"/><path d="M116.449 66.6c0-.58-.421-1.193-1.246-1.671L61.459 33.78c-1.51-.874-3.794-.97-5.103-.213L1.888 65.14c-.593.345-.88.803-.88 1.286V71c0 .581.422 1.195 1.247 1.673L55.99 103.82c1.51.874 3.794.97 5.102.21l54.469-31.571c.592-.343.879-.803.882-1.284l.006-4.575z" fill="#E5E5E5" stroke="#09073B" stroke-width=".667" stroke-linecap="round" stroke-linejoin="round"/><path clip-rule="evenodd" d="M115.565 67.884L61.097 99.456c-1.309.759-3.592.663-5.103-.213L2.252 68.097C.74 67.23.575 65.9 1.881 65.14l54.468-31.572c1.309-.757 3.592-.66 5.103.213L115.2 64.926c1.509.876 1.673 2.201.365 2.958z" stroke="#09073B" stroke-width=".667" stroke-linecap="round" stroke-linejoin="round"/><path d="M112.481 25.626L70.308 1.184a1.364 1.364 0 00-1.295-.04l-1.367.687a1.369 1.369 0 00-.743 1.036l-4.686 33.514a2.526 2.526 0 001.229 2.528l42.175 24.445a1.364 1.364 0 001.294.037l1.368-.686a1.356 1.356 0 00.743-1.037l4.685-33.511a2.523 2.523 0 00-1.23-2.53z" fill="#E5E5E5" stroke="#09073B" stroke-width=".667" stroke-linecap="round" stroke-linejoin="round"/><path d="M105.621 63.354L63.446 38.91a2.513 2.513 0 01-1.229-2.528l4.686-33.514a1.375 1.375 0 01.754-1.042 1.363 1.363 0 011.283.045l42.173 24.443a2.523 2.523 0 011.231 2.53l-4.686 33.512a1.37 1.37 0 01-1.401 1.182 1.362 1.362 0 01-.636-.183z" fill="#fff" stroke="#09073B" stroke-width=".667" stroke-linecap="round" stroke-linejoin="round"/><path d="M68.78 4.426l-4.115 29.42 41.449 24.022 4.111-29.42L68.779 4.425z" fill="#09073B" stroke="#09073B" stroke-width=".667" stroke-linecap="round" stroke-linejoin="round"/><path d="M84.192 30.687V33.1l3.255 1.926 3.257-1.926v-3.16l-2.779 1.638a.91.91 0 01-.96 0l-3.778-2.233a.623.623 0 01-.22-.84.623.623 0 01.22-.228l3.779-2.238a.928.928 0 01.96 0l2.778 1.645-1.28.755-1.977-1.167-.928.552-1.673.993.882.521 1.719 1.025 3.512-2.073a.732.732 0 01.668 0 .685.685 0 01.378.614v4.408a.94.94 0 01-.467.822l-3.613 2.136a.927.927 0 01-.96 0l-3.612-2.136a.931.931 0 01-.455-.822v-3.388l1.294.764z" fill="#175CFF"/><path d="M106.453 62.238a1.01 1.01 0 00-.586-.856L63.63 36.902c-.873-.505-2.395-.44-3.402.143L34.27 52.089c-.552.318-.832.728-.832 1.117v2.287a1.014 1.014 0 00.588.856l42.237 24.48c.87.505 2.395.441 3.402-.142l25.958-15.045c.552-.32.832-.73.83-1.116v-2.288z" fill="#E5E5E5" stroke="#09073B" stroke-width=".667" stroke-linecap="round" stroke-linejoin="round"/><path d="M76.261 78.54L34.024 54.062c-.872-.505-.763-1.388.244-1.972l25.958-15.044c1.008-.584 2.53-.648 3.403-.142l42.237 24.48c.873.505.763 1.388-.244 1.971L79.664 78.4c-1.007.583-2.532.647-3.403.142z" fill="#fff" stroke="#09073B" stroke-width=".667" stroke-linecap="round" stroke-linejoin="round"/><path d="M73.13 63l-12.236-7.092a1.89 1.89 0 00-1.7.07L53.12 59.5c-.502.291-.556.733-.121.984l12.236 7.092a1.889 1.889 0 001.703-.068l6.07-3.521c.507-.29.561-.732.121-.986z" fill="#fff" stroke="#09073B" stroke-width=".667" stroke-linecap="round" stroke-linejoin="round"/><path d="M59.914 40.293c.308 0 .558-.144.558-.322 0-.178-.25-.323-.558-.323-.309 0-.559.145-.559.323 0 .178.25.322.559.322zM62.086 41.552c.308 0 .558-.145.558-.323 0-.178-.25-.322-.558-.322-.309 0-.559.144-.559.322 0 .178.25.323.559.323zM61.001 40.922c.309 0 .559-.144.559-.322 0-.178-.25-.323-.559-.323-.308 0-.558.145-.558.323 0 .178.25.322.558.322zM58.82 40.927c.308 0 .558-.144.558-.322 0-.179-.25-.323-.558-.323-.309 0-.559.144-.559.323 0 .178.25.322.559.322zM60.992 42.185c.308 0 .558-.144.558-.322 0-.178-.25-.323-.558-.323-.308 0-.558.145-.558.323 0 .178.25.322.558.322zM59.905 41.556c.308 0 .558-.144.558-.322 0-.178-.25-.323-.558-.323-.309 0-.559.145-.559.323 0 .178.25.322.559.322zM57.726 41.561c.308 0 .558-.145.558-.323 0-.178-.25-.322-.558-.322-.309 0-.559.144-.559.322 0 .178.25.323.559.323zM59.898 42.819c.308 0 .558-.144.558-.323 0-.178-.25-.322-.558-.322-.309 0-.559.144-.559.322 0 .179.25.323.559.323zM58.81 42.19c.309 0 .559-.144.559-.322 0-.179-.25-.323-.559-.323-.308 0-.558.144-.558.322 0 .179.25.323.558.323zM56.632 42.197c.308 0 .558-.145.558-.323 0-.178-.25-.322-.558-.322-.309 0-.559.144-.559.322 0 .178.25.323.559.323zM58.801 43.455c.309 0 .559-.144.559-.322 0-.178-.25-.323-.559-.323-.308 0-.558.145-.558.323 0 .178.25.322.558.322zM57.717 42.826c.308 0 .558-.144.558-.322 0-.179-.25-.323-.558-.323-.309 0-.559.144-.559.323 0 .178.25.322.559.322zM55.536 42.83c.308 0 .558-.144.558-.322 0-.178-.25-.323-.558-.323-.309 0-.559.145-.559.323 0 .178.25.323.559.323zM57.707 44.089c.309 0 .559-.144.559-.323 0-.178-.25-.322-.559-.322-.308 0-.558.144-.558.322 0 .179.25.323.558.323zM56.623 43.46c.308 0 .558-.145.558-.323 0-.178-.25-.322-.558-.322-.308 0-.558.144-.558.322 0 .178.25.323.558.323zM54.443 43.464c.308 0 .558-.144.558-.322 0-.178-.25-.323-.558-.323-.309 0-.559.145-.559.323 0 .178.25.322.559.322zM56.613 44.723c.309 0 .558-.145.558-.323 0-.178-.25-.323-.558-.323-.308 0-.558.145-.558.323 0 .178.25.323.558.323zM55.527 44.093c.309 0 .559-.144.559-.322 0-.178-.25-.323-.559-.323-.308 0-.558.145-.558.323 0 .178.25.322.558.322zM53.348 44.098c.309 0 .559-.144.559-.322 0-.179-.25-.323-.559-.323-.308 0-.558.144-.558.322 0 .179.25.323.558.323zM55.52 45.356c.308 0 .558-.144.558-.322 0-.178-.25-.323-.558-.323-.309 0-.559.145-.559.323 0 .178.25.322.559.322zM54.433 44.727c.309 0 .559-.144.559-.322 0-.178-.25-.323-.559-.323-.308 0-.558.145-.558.323 0 .178.25.322.558.322zM52.254 44.734c.309 0 .559-.144.559-.323 0-.178-.25-.322-.559-.322-.308 0-.558.144-.558.322 0 .179.25.323.558.323zM54.424 45.992c.309 0 .559-.144.559-.322 0-.178-.25-.323-.559-.323-.308 0-.558.145-.558.323 0 .178.25.322.558.322zM53.34 45.363c.307 0 .557-.144.557-.322 0-.179-.25-.323-.558-.323-.308 0-.558.144-.558.323 0 .178.25.322.558.322zM51.157 45.368c.309 0 .559-.145.559-.323 0-.178-.25-.322-.559-.322-.308 0-.558.144-.558.322 0 .178.25.323.559.323zM53.33 46.626c.308 0 .558-.144.558-.322 0-.179-.25-.323-.558-.323-.308 0-.558.144-.558.322 0 .179.25.323.558.323zM52.245 45.997c.308 0 .558-.144.558-.323 0-.178-.25-.322-.558-.322-.308 0-.558.144-.558.322 0 .179.25.323.558.323zM50.17 45.94c.31 0 .56-.145.56-.323 0-.178-.25-.323-.56-.323-.308 0-.558.145-.558.323 0 .178.25.323.559.323zM52.343 47.198c.308 0 .558-.145.558-.323 0-.178-.25-.322-.558-.322-.308 0-.558.144-.558.322 0 .178.25.323.558.323zM51.258 46.569c.308 0 .558-.145.558-.323 0-.178-.25-.322-.558-.322-.308 0-.558.144-.558.322 0 .178.25.323.558.323zM98.402 62.6c.308 0 .558-.145.558-.323 0-.178-.25-.323-.558-.323-.308 0-.558.145-.558.323 0 .178.25.322.558.322zM100.572 63.858c.308 0 .558-.145.558-.323 0-.178-.25-.323-.558-.323-.309 0-.559.145-.559.323 0 .178.25.323.559.323zM99.487 63.228c.309 0 .558-.144.558-.322 0-.178-.25-.323-.558-.323-.308 0-.558.145-.558.323 0 .178.25.322.558.322zM97.307 63.233c.309 0 .559-.144.559-.322 0-.179-.25-.323-.559-.323-.308 0-.558.144-.558.322 0 .179.25.323.558.323zM99.478 64.491c.308 0 .558-.144.558-.322 0-.178-.25-.323-.558-.323-.309 0-.559.145-.559.323 0 .178.25.322.559.322zM98.393 63.862c.308 0 .558-.144.558-.322 0-.178-.25-.323-.558-.323-.308 0-.558.145-.558.323 0 .178.25.322.558.322zM96.212 63.867c.308 0 .558-.145.558-.323 0-.178-.25-.322-.558-.322-.309 0-.559.144-.559.322 0 .178.25.323.559.323zM98.384 65.125c.308 0 .558-.144.558-.322 0-.179-.25-.323-.558-.323-.309 0-.559.144-.559.323 0 .178.25.322.559.322zM97.299 64.496c.308 0 .558-.144.558-.323 0-.178-.25-.322-.558-.322-.309 0-.559.144-.559.322 0 .179.25.323.559.323zM95.118 64.503c.308 0 .558-.145.558-.323 0-.178-.25-.322-.558-.322-.308 0-.558.144-.558.322 0 .178.25.323.558.323zM97.29 65.761c.308 0 .558-.144.558-.322 0-.179-.25-.323-.559-.323-.308 0-.558.144-.558.323 0 .178.25.322.558.322zM96.202 65.132c.309 0 .559-.144.559-.323 0-.178-.25-.322-.559-.322-.308 0-.558.144-.558.322 0 .179.25.323.558.323zM94.024 65.137c.309 0 .559-.145.559-.323 0-.178-.25-.322-.559-.322-.308 0-.558.144-.558.322 0 .178.25.323.558.323zM96.196 66.395c.308 0 .558-.144.558-.323 0-.178-.25-.322-.558-.322-.309 0-.559.144-.559.322 0 .178.25.323.559.323zM95.109 65.766c.308 0 .558-.145.558-.323 0-.178-.25-.322-.558-.322-.309 0-.559.144-.559.322 0 .178.25.323.559.323zM92.93 65.77c.309 0 .559-.144.559-.322 0-.179-.25-.323-.559-.323-.308 0-.558.144-.558.323 0 .178.25.322.558.322zM95.1 67.028c.308 0 .558-.144.558-.322 0-.178-.25-.323-.559-.323-.308 0-.558.145-.558.323 0 .178.25.322.558.322zM94.015 66.4c.308 0 .558-.145.558-.323 0-.178-.25-.323-.558-.323-.308 0-.558.145-.558.323 0 .178.25.322.558.322zM91.834 66.404c.308 0 .558-.144.558-.323 0-.178-.25-.322-.558-.322-.309 0-.559.144-.559.322 0 .178.25.323.559.323zM94.006 67.662c.308 0 .558-.144.558-.322 0-.178-.25-.323-.558-.323-.309 0-.559.145-.559.323 0 .178.25.322.559.322zM92.921 67.033c.309 0 .559-.144.559-.323 0-.178-.25-.322-.559-.322-.308 0-.558.144-.558.322 0 .179.25.323.558.323zM90.74 67.04c.308 0 .558-.145.558-.323 0-.178-.25-.322-.558-.322-.309 0-.559.144-.559.322 0 .178.25.323.559.323zM92.912 68.298c.308 0 .558-.144.558-.322 0-.178-.25-.323-.558-.323-.309 0-.559.144-.559.323 0 .178.25.322.559.322zM91.825 67.67c.308 0 .558-.145.558-.323 0-.179-.25-.323-.558-.323-.309 0-.559.144-.559.323 0 .178.25.322.558.322zM89.646 67.674c.308 0 .558-.145.558-.323 0-.178-.25-.322-.558-.322-.309 0-.559.144-.559.322 0 .178.25.323.559.323zM91.818 68.932c.308 0 .558-.144.558-.323 0-.178-.25-.322-.558-.322-.308 0-.558.144-.558.322 0 .179.25.323.558.323zM90.73 68.303c.309 0 .559-.144.559-.323 0-.178-.25-.322-.559-.322-.308 0-.558.144-.558.322 0 .178.25.323.558.323zM88.659 68.246c.308 0 .558-.145.558-.323 0-.178-.25-.322-.558-.322-.308 0-.558.144-.558.322 0 .178.25.323.558.323zM90.83 69.504c.31 0 .56-.144.56-.323 0-.178-.25-.322-.56-.322-.308 0-.558.144-.558.323 0 .178.25.322.559.322zM89.744 68.875c.308 0 .558-.144.558-.323 0-.178-.25-.322-.558-.322-.308 0-.558.144-.558.322 0 .178.25.323.558.323z" fill="#B2B2B2"/><path d="M65.01 44.567l-1.974-1.144 1.973-1.144 1.974 1.144-1.974 1.144zm0 3.432l-4.935-2.86 1.974-1.144 4.934 2.86-1.974 1.144zm-5.922 0l-1.973-1.144 1.973-1.144 1.974 1.144-1.974 1.144zm-2.96 1.716l-1.974-1.144 1.974-1.144 1.974 1.144-1.974 1.144zm11.842-3.432l-1.974-1.144 1.974-1.144 1.973 1.144-1.973 1.144zm-5.921 3.432l-1.974-1.144 1.974-1.144 1.973 1.144-1.973 1.144zm-2.96 1.715l-1.974-1.143 1.973-1.144 1.974 1.144-1.974 1.144zM70.93 48l-1.974-1.144 1.974-1.144 1.974 1.144-1.974 1.144zm-2.96 1.716l-1.974-1.144 1.974-1.144 1.973 1.144-1.973 1.144zm-2.96 1.715l-1.974-1.143 1.973-1.144 1.974 1.144-1.974 1.144zm-2.961 1.716l-1.974-1.144 1.974-1.144 1.973 1.144-1.973 1.144zm11.842-3.431l-1.974-1.144 1.974-1.144 1.973 1.144-1.973 1.144zm-2.96 1.715l-1.974-1.143 1.973-1.144 1.974 1.144-1.974 1.144zm-2.961 1.716l-1.974-1.144 1.974-1.144 1.973 1.144-1.973 1.144zm8.881 8.58l-13.815-8.008 1.973-1.144 13.818 8.008-1.976 1.143zm0-10.295l-1.974-1.144 1.974-1.144 1.976 1.144-1.976 1.144zm-2.96 1.715l-1.974-1.144 1.974-1.144 1.973 1.144-1.973 1.144zm-2.96 1.716l-1.974-1.144 1.973-1.144 1.974 1.144-1.974 1.144zm8.88-1.716l-1.97-1.144 1.97-1.144 1.976 1.144-1.976 1.144zm-2.96 1.716l-1.974-1.144 1.974-1.144 1.976 1.144-1.976 1.144zm-2.96 1.716l-1.974-1.144 1.974-1.144 1.973 1.144-1.973 1.144zm8.88-1.716l-1.973-1.144 1.974-1.144 1.976 1.144-1.976 1.144zm-2.96 1.716l-1.97-1.144 1.97-1.144 1.976 1.144-1.976 1.144zm-2.96 1.716l-1.974-1.144 1.974-1.144 1.976 1.144-1.976 1.144zm8.884-1.716l-1.976-1.144 1.976-1.144 1.973 1.144-1.973 1.144zm-2.963 1.716l-1.974-1.144 1.974-1.144 1.976 1.144-1.976 1.144zm-2.96 1.716l-1.972-1.144 1.971-1.144 1.976 1.144-1.976 1.144zm8.883-1.716l-1.974-1.144 1.974-1.144 1.974 1.144-1.974 1.144zm-2.96 1.716l-1.976-1.144 1.976-1.144 1.973 1.144-1.973 1.144zm-2.963 1.715l-1.974-1.143 1.974-1.144 1.976 1.144-1.976 1.143zm-2.96 1.716l-1.972-1.144 1.971-1.143 1.976 1.143-1.976 1.144zm14.804-1.716l-4.934-2.86 1.974-1.143 4.933 2.86-1.973 1.143zm-5.921 0l-1.974-1.143 1.974-1.144 1.974 1.144-1.974 1.143zm-5.923 3.432l-1.974-1.144 1.974-1.144 1.976 1.144-1.976 1.144zm8.883-1.716l-1.973-1.144 1.974-1.143 1.973 1.143-1.974 1.144zm-2.96 1.716l-4.934-2.86 1.974-1.143 4.934 2.86-1.974 1.143zm-2.96 1.716l-1.974-1.144 1.974-1.144 1.973 1.144-1.973 1.144z" fill="#fff" stroke="#09073B" stroke-width=".667" stroke-linecap="round" stroke-linejoin="round"/><path d="M73.244 86.795a.816.816 0 00-.116-.414l-3.038-5.212c-.394-.686-1.661-1.04-2.828-.812l-19.57 3.832c-.93.18-1.516.687-1.516 1.227v1.143c0 .147.04.29.116.414l3.036 5.21c.394.686 1.661 1.04 2.83.812l19.568-3.83c.932-.183 1.518-.686 1.518-1.226v-1.144z" fill="#175CFF" stroke="#09073B" stroke-width=".667" stroke-linecap="round" stroke-linejoin="round"/><path d="M70.087 81.17l3.043 5.211c.394.686-.228 1.412-1.402 1.64l-19.565 3.83c-1.17.229-2.437-.135-2.83-.812l-3.043-5.21c-.397-.686.228-1.41 1.399-1.64l19.57-3.832c1.167-.228 2.434.142 2.828.813z" fill="#fff" stroke="#09073B" stroke-width=".667" stroke-linecap="round" stroke-linejoin="round"/><path d="M68.765 81.428l3.038 5.212c.148.254-.087.528-.526.615l-19.57 3.83c-.438.087-.912-.05-1.062-.304l-3.04-5.21c-.149-.254.086-.53.524-.615l19.57-3.832c.444-.085.918.062 1.066.304z" fill="#09073B"/><path d="M24.944 49.278l-5.92-3.432-5.922 3.432v16.014l5.921 3.432 5.921-3.432V49.278z" fill="#175CFF" stroke="#09073B" stroke-width=".667" stroke-linecap="round" stroke-linejoin="round"/><path clip-rule="evenodd" d="M19.024 52.71l-5.922-3.432 5.922-3.432 5.92 3.432-5.92 3.432z" stroke="#09073B" stroke-width=".667" stroke-linecap="round" stroke-linejoin="round"/><path d="M17.05 51.566l-1.974-1.144 5.92-3.432 1.975 1.144-5.922 3.431z" fill="#fff" stroke="#09073B" stroke-width=".667" stroke-linecap="round" stroke-linejoin="round"/><path clip-rule="evenodd" d="M24.944 65.292l-5.92 3.432V52.709l5.92-3.431v16.014zM13.102 65.292l5.921 3.432V52.709l-5.92-3.431v16.014z" stroke="#09073B" stroke-width=".667" stroke-linecap="round" stroke-linejoin="round"/><path d="M15.076 53.853l1.973 1.144v-3.432l-1.973-1.144v3.432z" fill="#fff" stroke="#09073B" stroke-width=".667" stroke-linecap="round" stroke-linejoin="round"/><path d="M28.893 65.292l5.92-3.431-5.92-3.432-5.921 3.431 5.92 3.432z" fill="#175CFF" stroke="#09073B" stroke-width=".667" stroke-linecap="round" stroke-linejoin="round"/><path d="M30.866 64.148l1.974-1.143-5.922-3.432-1.973 1.144 5.92 3.431z" fill="#fff" stroke="#09073B" stroke-width=".667" stroke-linecap="round" stroke-linejoin="round"/><path d="M22.972 68.724l5.92 3.432v-6.864l-5.92-3.432v6.864zm11.842 0l-5.921 3.432v-6.864l5.92-3.432v6.864z" fill="#175CFF"/><path d="M28.893 72.156l-5.921-3.432V61.86l5.92 3.432m0 6.864v-6.864m0 6.864l5.922-3.432V61.86l-5.921 3.432" stroke="#09073B" stroke-width=".667" stroke-linecap="round" stroke-linejoin="round"/><path d="M32.839 66.436l-1.974 1.144v-3.432l1.974-1.144v3.432z" fill="#fff" stroke="#09073B" stroke-width=".667" stroke-linecap="round" stroke-linejoin="round"/><path clip-rule="evenodd" d="M28.893 58.429l-5.921 3.431v6.864l5.92 3.432 5.922-3.432V61.86l-5.921-3.431z" stroke="#09073B" stroke-width=".667" stroke-linecap="round" stroke-linejoin="round"/><path d="M22.964 64.862l3.947 2.288-2.338 6.452-3.948-2.288 2.339-6.452z" fill="#175CFF" stroke="#09073B" stroke-width=".667" stroke-linecap="round" stroke-linejoin="round"/><path clip-rule="evenodd" d="M25.577 68.198l-2.368-1.373-.244-1.963 3.947 2.288-1.335 1.048z" stroke="#09073B" stroke-width=".667" stroke-linecap="round" stroke-linejoin="round"/><path d="M111.387 104.356a1.013 1.013 0 00-.585-.856l-14.607-8.464c-.87-.506-2.395-.442-3.4.141l-22.013 12.757c-.549.321-.83.728-.83 1.117v2.287a1.01 1.01 0 00.586.856l14.606 8.465c.871.506 2.396.441 3.403-.142l22.011-12.757c.551-.32.829-.727.829-1.116v-2.288z" fill="#175CFF" stroke="#09073B" stroke-width=".667" stroke-linecap="round" stroke-linejoin="round"/><path d="M85.142 118.371l-14.606-8.465c-.87-.505-.761-1.388.244-1.972l22.013-12.757c1.005-.583 2.53-.647 3.4-.141l14.606 8.464c.873.506.764 1.389-.244 1.973l-22.01 12.756c-1.008.584-2.532.648-3.403.142z" fill="#175CFF" stroke="#09073B" stroke-width=".667" stroke-linecap="round" stroke-linejoin="round"/><path d="M88.695 115.855l-13.818-8.008 19.739-11.439 13.815 8.008-19.736 11.439z" fill="#fff" stroke="#09073B" stroke-width=".667" stroke-linecap="round" stroke-linejoin="round"/><path d="M100.185 106.356l-3.148-.009-.007-.845" stroke="#175CFF" stroke-width=".667" stroke-linecap="round" stroke-linejoin="round"/><path d="M90.484 101.643l4.903 2.839" stroke="#09073B" stroke-width=".667" stroke-linecap="round" stroke-linejoin="round"/><path d="M96.895 108.262l-3.147-.01-.007-.844" stroke="#175CFF" stroke-width=".667" stroke-linecap="round" stroke-linejoin="round"/><path d="M87.196 103.549l4.902 2.839" stroke="#09073B" stroke-width=".667" stroke-linecap="round" stroke-linejoin="round"/><path d="M93.609 110.167l-3.148-.009-.009-.846" stroke="#175CFF" stroke-width=".667" stroke-linecap="round" stroke-linejoin="round"/><path d="M83.91 105.452l4.9 2.842" stroke="#09073B" stroke-width=".667" stroke-linecap="round" stroke-linejoin="round"/><path d="M106.86 101.213l-1.382-.801c1.09-.631 1.09-1.656 0-2.288-1.089-.631-2.858-.631-3.947 0l-1.381-.8a3.482 3.482 0 00-3.159 0l-2.368 1.372 9.869 5.72 2.368-1.373c.866-.505.866-1.325 0-1.83z" fill="#fff" stroke="#09073B" stroke-width=".667" stroke-linecap="round" stroke-linejoin="round"/><path d="M49.2 17.09l5.73 3.323a.912.912 0 01.47.8.918.918 0 01-.47.801l-9.399 5.443c-1.267.734-1.9-.673-1.005-2.228l1.126-1.961" stroke="#09073B" stroke-width=".667" stroke-linecap="round" stroke-linejoin="round"/><path d="M49.205 10.914L38.548 19.15l-1.778-7.207 14.212-8.236-1.777 7.207z" fill="#E5E5E5" stroke="#09073B" stroke-width=".667" stroke-linecap="round" stroke-linejoin="round"/><path d="M49.2 17.09L38.42 23.34c-1.264.734-1.9-.673-1.004-2.229l1.128-1.96" stroke="#09073B" stroke-width=".667" stroke-linecap="round" stroke-linejoin="round"/><path d="M47.483 20.725c.52-.905.52-1.883 0-2.184-.52-.301-1.363.188-1.883 1.093s-.521 1.883-.001 2.184c.52.302 1.363-.188 1.884-1.093zM41.051 24.453c.52-.904.52-1.882 0-2.184-.52-.301-1.363.188-1.883 1.093s-.52 1.883 0 2.184c.519.302 1.363-.188 1.883-1.093z" fill="#fff" stroke="#09073B" stroke-width=".667" stroke-linecap="round" stroke-linejoin="round"/><path d="M36.77 11.943l-.333-1.338c-.118-.483-.544-.62-1.032-.337l-1.666.964" stroke="#09073B" stroke-width=".667" stroke-linecap="round" stroke-linejoin="round"/><path d="M40.362 24.053c.138-.24.138-.501 0-.582-.14-.08-.365.05-.503.29-.139.242-.139.503 0 .583.14.08.364-.05.503-.29zM46.793 20.326c.138-.241.138-.502 0-.582-.14-.08-.364.05-.503.29-.139.241-.138.502 0 .582.14.08.364-.05.503-.29z" fill="#09073B"/><path d="M50.983 3.707l7.104 4.118-1.776 7.207-7.106-4.118 1.778-7.207z" fill="#fff" stroke="#09073B" stroke-width=".667" stroke-linecap="round" stroke-linejoin="round"/><path d="M38.548 19.15l7.103 4.118 10.66-8.236-7.106-4.118-10.657 8.236z" fill="#fff" stroke="#09073B" stroke-width=".667" stroke-linecap="round" stroke-linejoin="round"/><path d="M36.77 11.943l1.778 7.207 7.104 4.118-1.776-7.207-7.106-4.118z" fill="#fff" stroke="#09073B" stroke-width=".667" stroke-linecap="round" stroke-linejoin="round"/><path clip-rule="evenodd" d="M50.982 3.707l7.104 4.118-1.776 7.207-10.659 8.236-7.103-4.118-1.778-7.207 14.212-8.236z" stroke="#09073B" stroke-width=".667" stroke-linecap="round" stroke-linejoin="round"/><path d="M56.31 15.032l-10.659 8.236-1.775-7.206 14.21-8.237-1.775 7.207z" fill="#E5E5E5" stroke="#09073B" stroke-width=".667" stroke-linecap="round" stroke-linejoin="round"/><path d="M54.589 24.843c.52-.905.52-1.883 0-2.184-.52-.302-1.363.188-1.883 1.093s-.521 1.882-.001 2.184c.52.301 1.363-.188 1.884-1.093zM48.156 28.57c.52-.904.521-1.882.001-2.183-.52-.302-1.363.188-1.883 1.093-.521.904-.521 1.883-.002 2.184.52.301 1.364-.188 1.884-1.093z" fill="#fff" stroke="#09073B" stroke-width=".667" stroke-linecap="round" stroke-linejoin="round"/><path d="M47.467 28.17c.139-.24.139-.5 0-.581-.14-.08-.364.05-.503.29-.138.241-.138.502 0 .582.14.08.364-.05.503-.29zM53.899 24.443c.138-.241.138-.502 0-.582-.14-.08-.364.05-.503.29-.139.241-.138.502 0 .583.14.08.364-.05.503-.291z" fill="#09073B"/><path d="M33.741 11.232l7.106 4.118" stroke="#175CFF" stroke-width=".667" stroke-linecap="round" stroke-linejoin="round"/><path d="M45.651 23.268l-2.105-8.545c-.119-.483-.545-.62-1.035-.336l-1.664.963" stroke="#09073B" stroke-width=".667" stroke-linecap="round" stroke-linejoin="round"/></g><defs><clipPath id="a"><path fill="#fff" d="M0 0H346.667V121H0z"/></clipPath></defs></svg>