<svg width="347" height="121" fill="none" xmlns="http://www.w3.org/2000/svg"><g clip-path="url(#a)"><path d="M139.518 74.884c0-.698-.508-1.434-1.502-2.008L73.26 35.492c-1.82-1.051-4.572-1.164-6.148-.255L1.482 73.132c-.714.412-1.06.964-1.06 1.54v5.492c0 .7.508 1.434 1.502 2.01l64.746 37.384c1.82 1.052 4.572 1.165 6.148.256l65.629-37.895c.714-.412 1.06-.964 1.063-1.543l.008-5.492z" fill="#E5E5E5" stroke="#09073B" stroke-width=".667" stroke-linecap="round" stroke-linejoin="round"/><path d="M47.453 76.059l-3.729 2.153m-6.45 14.556l-3.73 2.153M23.078 77.135l-3.726 2.153m29.887-18.08l-3.729 2.153m22.937-8.196l-3.729 2.152" stroke="#09073B" stroke-width=".667" stroke-linecap="round" stroke-linejoin="round"/><path d="M110.391 56.93l-71.34 41.19 27.58 15.925a6.666 6.666 0 006.667 0l65.01-37.534c1.334-.77 1.334-2.694 0-3.464L110.391 56.93z" fill="#B2B2B2" stroke="#09073B" stroke-width=".667" stroke-linecap="round" stroke-linejoin="round"/><path clip-rule="evenodd" d="M138.453 76.427l-65.63 37.895c-1.576.909-4.327.796-6.148-.256L1.922 76.682c-1.824-1.051-2.021-2.639-.448-3.55l65.63-37.895c1.576-.909 4.327-.796 6.148.255l64.761 37.384c1.818 1.052 2.016 2.64.44 3.551z" stroke="#09073B" stroke-width=".667" stroke-linecap="round" stroke-linejoin="round"/><path d="M.749 23.108c-.033 1.648 2.024 1.686 3.641.939 2.117-.977 2.472-2.845 4.742-4.33 3.093-2.027 4.048.387 7.357-1.807 1.864-1.233 1.823-2.167 3.57-3.23 3.213-1.952 4.056.767 6.59-.897 2.71-1.79 3.246-5.913 5.953-7.415 1.763-.975 2.656.151 4.12-1.257.65-.624 1.337-1.673 1.348-2.472 0-.84-.75-1.128-1.489-.887-1.024.335-1.373 1.494-2.51 2.17-1.823 1.098-2.265-1.099-4.302-.085-1.242.62-1.373 1.578-2.807 2.386-1.922 1.068-2.334-.25-3.822.72-1.689 1.098-1.898 3.294-3.43 4.28-1.768 1.132-2.158-1.373-4.245-.414-2.26 1.043-3.586 4.775-5.58 5.294-.997.258-1.25-.516-2.227.118-.906.588-1.01 1.458-2.018 2.224-1.19.906-1.648.157-2.746.959-1.099.801-2.126 2.559-2.145 3.704zm7.727 15.037c-.052 1.145.997 1.433 1.862 1.12 1.098-.398 1.392-1.587 2.62-2.435 2.128-1.475 2.954.974 4.822-.497 1.312-1.036 1.46-2.57 2.902-3.452 1.03-.632 1.351-.085 2.224-.824.874-.739 1.747-2.282 1.697-3.402-.057-1.351-1.455-1.466-2.496-.846-1.098.66-1.252 1.815-2.31 2.576-1.784 1.285-2.564-1.288-4.19-.151-1.436 1.002-1.724 3.61-3.234 4.465-.873.494-1.099-.192-2.035.453-.824.566-1.826 1.92-1.862 2.993zm34.416-21.963c-.033.747.65.934 1.213.73.717-.274.91-1.034 1.709-1.586 1.373-.961 1.922.634 3.14-.324.855-.676.954-1.675 1.89-2.25.673-.411.882-.057 1.45-.548.569-.492 1.14-1.489 1.099-2.216-.039-.882-.948-.956-1.626-.55-.72.429-.824 1.184-1.505 1.678-1.164.824-1.672-.824-2.73-.099-.936.654-1.123 2.354-2.108 2.911-.569.321-.723-.126-1.327.297-.527.376-1.172 1.257-1.205 1.958zm4.234 26.71l-1.189-.686a.448.448 0 00-.467.033l-.95.55a1.706 1.706 0 00-.714 1.372v12.78l1.19.687 2.377-1.373V43.464a.631.631 0 00-.247-.571zm4.756-2.745l-1.189-.687a.448.448 0 00-.467.033l-.95.55a1.706 1.706 0 00-.714 1.373v12.78l1.19.686 2.377-1.373V40.718a.623.623 0 00-.247-.571zm4.756-2.746l-1.189-.687a.448.448 0 00-.467.033l-.95.55a1.705 1.705 0 00-.714 1.373v12.78l1.19.686 2.377-1.373V37.972a.624.624 0 00-.247-.571zm4.756-2.746l-1.189-.687a.448.448 0 00-.466.033l-.95.55a1.706 1.706 0 00-.715 1.372v12.78l1.19.687 2.377-1.373V35.226a.622.622 0 00-.247-.571zm4.756-2.746l-1.189-.687a.448.448 0 00-.466.033l-.95.55a1.706 1.706 0 00-.715 1.373v12.78l1.19.686 2.377-1.373V32.48a.622.622 0 00-.247-.571zm4.756-2.746l-1.189-.703a.446.446 0 00-.466.033l-.95.549a1.705 1.705 0 00-.715 1.373v12.78l1.19.686 2.378-1.373V29.734a.624.624 0 00-.248-.571zm4.756-2.746l-1.189-.703a.446.446 0 00-.466.033l-.95.549a1.704 1.704 0 00-.714 1.373v12.78l1.189.686 2.378-1.373V26.988a.623.623 0 00-.248-.571z" fill="#fff" stroke="#09073B" stroke-width=".667" stroke-linecap="round" stroke-linejoin="round"/><path d="M46.66 42.926l-.95.549a1.707 1.707 0 00-.715 1.373v12.78l2.379-1.373v-12.79c0-.525-.322-.767-.715-.54zm4.756-2.746l-.95.549a1.706 1.706 0 00-.715 1.373v12.78l2.379-1.373v-12.79c0-.525-.322-.767-.714-.54zm4.756-2.746l-.95.549a1.707 1.707 0 00-.714 1.373v12.78l2.378-1.373v-12.79c0-.525-.319-.767-.714-.54zm4.756-2.746l-.95.55a1.706 1.706 0 00-.714 1.372v12.78l2.378-1.373v-12.79c0-.525-.319-.767-.714-.54zm4.756-2.746l-.95.55a1.705 1.705 0 00-.714 1.372v12.78l2.378-1.373V32.48c0-.525-.319-.767-.714-.54zm4.756-2.746l-.95.55a1.706 1.706 0 00-.714 1.372v12.78l2.378-1.373v-12.79c0-.525-.308-.767-.714-.54zm4.756-2.746l-.95.55a1.706 1.706 0 00-.714 1.372v12.78l2.378-1.373v-12.79c0-.525-.319-.767-.714-.54zM42.37 45.639l-1.18-.703a.448.448 0 00-.467.033l-.953.55a1.711 1.711 0 00-.711 1.372v12.78l1.189.686 2.378-1.373V46.21a.633.633 0 00-.256-.571z" fill="#fff" stroke="#09073B" stroke-width=".667" stroke-linecap="round" stroke-linejoin="round"/><path d="M41.903 45.672l-.953.549a1.71 1.71 0 00-.71 1.373v12.78L42.616 59V46.21c0-.525-.33-.766-.714-.538zm-30.45 17.816l-1.186-.703a.443.443 0 00-.464.033l-.953.549a1.714 1.714 0 00-.714 1.373v12.78l1.189.686 2.378-1.373V64.06a.624.624 0 00-.25-.571zm4.748-2.746l-1.178-.703a.443.443 0 00-.464.033l-.953.549a1.713 1.713 0 00-.714 1.373v12.78l1.189.686 2.378-1.373V61.313a.623.623 0 00-.258-.571zm4.764-2.746l-1.195-.703a.443.443 0 00-.463.033l-.953.549a1.713 1.713 0 00-.714 1.373v12.78l1.189.686 2.378-1.373V58.567a.623.623 0 00-.242-.571z" fill="#fff" stroke="#09073B" stroke-width=".667" stroke-linecap="round" stroke-linejoin="round"/><path d="M10.983 63.52l-.953.55a1.713 1.713 0 00-.714 1.373v12.78l2.378-1.373V64.059c.006-.525-.313-.766-.71-.538zm4.762-2.745l-.953.549a1.714 1.714 0 00-.714 1.373v12.78l2.378-1.373V61.313c0-.525-.319-.766-.711-.538zm4.756-2.746l-.953.549a1.713 1.713 0 00-.714 1.373v12.78l2.378-1.373V58.567c0-.525-.319-.766-.711-.538z" fill="#fff" stroke="#09073B" stroke-width=".667" stroke-linecap="round" stroke-linejoin="round"/><path d="M79.161 41.695a1.252 1.252 0 00-.7-1.03 3.57 3.57 0 00-3.38 0 1.251 1.251 0 00-.7 1.03v13.73a1.257 1.257 0 00.7 1.03 3.57 3.57 0 003.38 0 1.257 1.257 0 00.7-1.03v-13.73z" fill="#B2B2B2" stroke="#09073B" stroke-width=".667" stroke-linecap="round" stroke-linejoin="round"/><path d="M76.77 43.151c1.319 0 2.388-.652 2.388-1.455 0-.804-1.07-1.456-2.389-1.456-1.319 0-2.389.652-2.389 1.456 0 .803 1.07 1.455 2.39 1.455z" fill="#B2B2B2" stroke="#09073B" stroke-width=".667" stroke-linecap="round" stroke-linejoin="round"/><path d="M62.833 36.772c-.044-.445.48-.92.48-1.373 0-.453-.524-.93-.48-1.373.044-.442.651-.824.739-1.255.088-.431-.335-1.013-.206-1.439.129-.425.799-.67.97-1.084.17-.415-.13-1.058.082-1.453.211-.396.914-.5 1.164-.873.25-.374.077-1.063.362-1.409.286-.346.94-.379 1.313-.629.725-.489.763-1.323.502-2.004-.183-.486-1.013-.635-1.233-1.099-.22-.464.113-1.153-.035-1.647-.148-.495-.791-.912-.862-1.442-.072-.53.433-1.071.433-1.601s-.507-1.098-.433-1.604c.074-.505.72-.92.867-1.417.149-.497-.184-1.186.033-1.647.217-.462.95-.676 1.233-1.112.283-.437.16-1.19.503-1.582.343-.393 1.098-.379 1.496-.722.398-.343.484-1.099.926-1.373.442-.275 1.159-.052 1.647-.275.49-.222.772-.911 1.277-1.06.505-.148 1.126.275 1.648.203.522-.07.994-.656 1.524-.656s1.016.582 1.527.656c.51.075 1.15-.348 1.647-.203.497.146.805.843 1.277 1.06.472.217 1.2 0 1.648.275.447.274.532 1.038.928 1.373.395.335 1.15.327 1.494.722.343.396.22 1.142.502 1.582.283.44 1.014.634 1.233 1.112.22.478-.112 1.153.033 1.647.146.495.794.893.868 1.417.074.525-.437 1.071-.437 1.604 0 .533.511 1.098.437 1.601-.074.503-.72.92-.868 1.417-.148.497.184 1.186-.033 1.647-.217.462-1.043.63-1.233 1.099-.327.824-.118 1.307.503 2.005.299.335 1.027.274 1.312.628.286.355.113 1.035.363 1.409.25.373.953.478 1.164.873.212.396-.09 1.035.083 1.453.172.417.837.65.969 1.085.132.433-.294.996-.206 1.438.088.442.695.805.739 1.255.043.45-.484.918-.484 1.373 0 .456.528.928.484 1.373-.044.445-.651.824-.74 1.252-.087.429.336 1.014.207 1.442-.13.428-.8.67-.97 1.082-.17.412.13 1.06-.082 1.453-.211.392-.914.502-1.164.873-.25.37-.077 1.063-.363 1.409-.285.346-.994.313-1.312.631-.319.319-.275 1.024-.63 1.31-.353.286-1.034.113-1.408.365-.373.253-.475.95-.873 1.162-.398.211-1.035-.09-1.453.082-.417.173-.65.84-1.084.97-.434.129-.997-.291-1.44-.206-.441.085-.801.697-1.254.741-.453.044-.917-.483-1.373-.483-.456 0-.928.524-1.373.483-.445-.041-.824-.654-1.255-.741-.431-.088-1.013.337-1.439.206-.426-.132-.673-.8-1.085-.97-.412-.17-1.057.13-1.452-.082-.396-.212-.5-.915-.873-1.164-.374-.25-1.063-.077-1.41-.363-.345-.285-.312-.994-.628-1.313-.316-.318-1.027-.274-1.313-.628-.285-.355-.112-1.036-.362-1.41-.25-.373-.953-.474-1.164-.872-.212-.398.09-1.035-.083-1.453-.173-.417-.824-.65-.97-1.082-.145-.431.295-.997.207-1.442-.088-.444-.711-.777-.76-1.227z" fill="#175CFF" stroke="#09073B" stroke-width=".667" stroke-linecap="round" stroke-linejoin="round"/><path d="M82.857 27.562c-.436.275-1.159.055-1.647.275-.49.22-.772.914-1.277 1.06-.506.145-1.126-.275-1.648-.204-.522.072-.994.66-1.527.66-.532 0-1.013-.586-1.524-.66-.51-.074-1.15.352-1.647.204-.497-.149-.805-.843-1.277-1.06-.473-.217-1.2 0-1.648-.275" stroke="#09073B" stroke-width=".667" stroke-linecap="round" stroke-linejoin="round"/><path d="M30.45 71.105a1.966 1.966 0 00-1.785 0 .62.62 0 00-.37.514V84.68a.629.629 0 00.37.517 1.982 1.982 0 001.785 0 .625.625 0 00.368-.517V71.62a.617.617 0 00-.368-.514z" fill="#fff" stroke="#09073B" stroke-width=".667" stroke-linecap="round" stroke-linejoin="round"/><path d="M34.904 66.712l-8.269-4.77c-.313-.181-.744-.154-1.219.12a3.802 3.802 0 00-1.719 2.98v3.976l8.26 4.77 3.466-1.988v-3.974c0-.549-.206-.922-.52-1.114z" fill="#175CFF" stroke="#09073B" stroke-width=".667" stroke-linecap="round" stroke-linejoin="round"/><path d="M33.688 66.832a3.806 3.806 0 00-1.722 2.98v3.976l3.457-1.988v-3.974c0-1.098-.785-1.543-1.735-.993z" fill="#175CFF" stroke="#09073B" stroke-width=".667" stroke-linecap="round" stroke-linejoin="round"/><path d="M27.918 68.969l-2.175-3.921" stroke="#09073B" stroke-width=".667" stroke-linecap="round" stroke-linejoin="round"/><path d="M26.468 66.355l-.725-1.307-1.515.862.724 1.304 1.516-.86z" fill="#fff" stroke="#09073B" stroke-width=".667" stroke-linecap="round" stroke-linejoin="round"/><path d="M99.836 87.573L97.458 86.2c-.646-.374-1.538-.319-2.524.25-1.969 1.137-3.57 3.902-3.57 6.178 0 1.137.398 1.936 1.046 2.31l2.379 1.373c.645.373 1.534.318 2.52-.25 1.972-1.137 3.57-3.905 3.57-6.179 0-1.137-.398-1.936-1.043-2.31zm28.536-16.476l-2.378-1.373c-.645-.374-1.538-.319-2.521.25-1.971 1.137-3.57 3.902-3.57 6.178 0 1.137.401 1.936 1.047 2.31l2.378 1.373c.645.373 1.537.318 2.523-.25 1.969-1.137 3.57-3.905 3.57-6.179-.003-1.137-.404-1.936-1.049-2.31z" fill="#E5E5E5" stroke="#09073B" stroke-width=".667" stroke-linecap="round" stroke-linejoin="round"/><path d="M128.71 53.772l-19.027-10.984c-1.733-1.002-4.498-.7-7.615 1.099v8.238l19.025 10.984 9.515-5.492c0-1.854-.709-3.158-1.898-3.845z" fill="#fff" stroke="#09073B" stroke-width=".667" stroke-linecap="round" stroke-linejoin="round"/><path d="M115.147 56.93l19.027 10.984-1.189.687-19.027-10.984 1.189-.687z" fill="#fff" stroke="#09073B" stroke-width=".667" stroke-linecap="round" stroke-linejoin="round"/><path d="M66.397 83.704l35.671-20.595V41.14l-35.67 20.595v21.968z" fill="#B2B2B2" stroke="#09073B" stroke-width=".667" stroke-linecap="round" stroke-linejoin="round"/><path d="M85.422 80.958L66.397 69.974v-8.238L85.422 72.72v8.238zm-1.19 14.416L65.21 84.39v2.746L84.233 98.12v-2.746z" fill="#fff" stroke="#09073B" stroke-width=".667" stroke-linecap="round" stroke-linejoin="round"/><path d="M84.233 73.406L65.208 62.422v2.746l19.025 10.984v-2.746zM65.208 62.422l1.19-.686L85.421 72.72l-1.19.686L65.21 62.422zm0 21.968l1.19-.686 19.024 10.984-1.19.686L65.21 84.39z" fill="#fff"/><path d="M84.233 73.406L65.208 62.422m19.025 10.984v2.746L65.208 65.168v-2.746m19.025 10.984l1.189-.686-19.025-10.984-1.189.686m0 21.968l1.19-.686 19.024 10.984-1.19.686L65.21 84.39z" stroke="#09073B" stroke-width=".667" stroke-linecap="round" stroke-linejoin="round"/><path d="M66.397 61.736L85.422 72.72l35.67-20.595-19.024-10.984-35.67 20.595z" fill="#fff" stroke="#09073B" stroke-width=".667" stroke-linecap="round" stroke-linejoin="round"/><path d="M119.033 78.028L89.859 94.872c-1.136.656-2.06-.041-2.06-1.557l33.293-19.222c.006 1.516-.92 3.278-2.059 3.935z" fill="#09073B" stroke="#09073B" stroke-width=".667" stroke-linecap="round" stroke-linejoin="round"/><path d="M85.422 94.688l35.67-20.595V52.125L85.422 72.72v21.968zm35.676-31.58l9.515-5.491 2.175 3.77c.141.267.211.566.203.868v7.719l-9.515 5.492c-1.313.758-2.378.143-2.378-1.373V63.109z" fill="#E5E5E5" stroke="#09073B" stroke-width=".667" stroke-linecap="round" stroke-linejoin="round"/><path d="M132.986 68.326l-9.515 5.492c-.525.302-.95.055-.95-.55V62.286" stroke="#09073B" stroke-width=".667" stroke-linecap="round" stroke-linejoin="round"/><path d="M123.948 66.028V64.5a2.153 2.153 0 01.967-1.678l4.064-2.345c.365-.211.703-.165.865.118l1.274 2.197c.141.267.21.566.201.868v.95l-4.905 2.842c-1.362.785-2.466.145-2.466-1.425z" fill="#09073B" stroke="#09073B" stroke-width=".667" stroke-linecap="round" stroke-linejoin="round"/><path d="M132.986 68.6v1.374l-3.57 2.06v2.745l3.57-2.06a2.624 2.624 0 001.189-2.059v-2.746l-1.189.687zm-11.888-13.73c5.259-3.036 9.515-1.806 9.515 2.747l-9.515 5.492V54.87z" fill="#E5E5E5" stroke="#09073B" stroke-width=".667" stroke-linecap="round" stroke-linejoin="round"/><path d="M128.373 76.923c1.393-2.413 1.392-5.021-.001-5.826-1.394-.804-3.653.5-5.046 2.912-1.393 2.413-1.392 5.02.001 5.825 1.394.805 3.653-.499 5.046-2.911z" fill="#E5E5E5" stroke="#09073B" stroke-width=".667" stroke-linecap="round" stroke-linejoin="round"/><path d="M126.691 75.952c.465-.804.464-1.673-.001-1.941-.465-.269-1.218.165-1.682.969-.464.804-.464 1.673.001 1.941.465.269 1.218-.165 1.682-.969z" fill="#E5E5E5" stroke="#09073B" stroke-width=".667" stroke-linecap="round" stroke-linejoin="round"/><path d="M85.422 94.688l-1.19.686v2.746l1.19-.686v-2.746zm2.378-1.373l-2.378 1.373v2.746l2.378-4.12zM85.422 72.72l-1.19.686v2.746l1.19-.686V72.72z" fill="#E5E5E5"/><path d="M85.422 94.688l-1.19.686v2.746l1.19-.686m0-2.746v2.746m0-2.746l2.378-1.373-2.378 4.119m0-24.714l-1.19.686v2.746l1.19-.686V72.72zM130.604 57.617c0-2.276-4.253-1.664-9.512 1.373" stroke="#09073B" stroke-width=".667" stroke-linecap="round" stroke-linejoin="round"/><path d="M122.521 69.43c.565-.327 1.024-.06 1.024.59a2.26 2.26 0 01-1.024 1.774V69.43z" fill="#09073B"/><path d="M99.837 93.398c1.393-2.413 1.392-5.02-.001-5.825-1.394-.805-3.653.499-5.046 2.912-1.393 2.412-1.392 5.02.001 5.825 1.394.804 3.653-.5 5.046-2.912z" fill="#E5E5E5" stroke="#09073B" stroke-width=".667" stroke-linecap="round" stroke-linejoin="round"/><path d="M98.155 92.427c.464-.803.464-1.673-.001-1.941-.465-.269-1.218.165-1.682.97-.464.803-.464 1.672.001 1.94.465.27 1.218-.165 1.682-.969z" fill="#E5E5E5" stroke="#09073B" stroke-width=".667" stroke-linecap="round" stroke-linejoin="round"/><path d="M131.176 60.854l1.842 1.066-1.699 2.699" stroke="#09073B" stroke-width=".667" stroke-linecap="round" stroke-linejoin="round"/><path d="M133.233 62.044l-.426-.248c-.351-.203-.637 0-.637.484v1.244a1.53 1.53 0 00.637 1.219l.426.244c.351.203.637-.014.637-.483V63.26a1.525 1.525 0 00-.637-1.216z" fill="#B2B2B2" stroke="#09073B" stroke-width=".667" stroke-linecap="round" stroke-linejoin="round"/><path d="M66.398 83.704l19.024 10.984v-13.73l-7.134-4.12-11.89 6.866zm-7.653 17.912c0-.442-.434-.953-1.717-.953a2.28 2.28 0 00-2.24 2.329c0 .337.326.664.903.804.752.184 1.623-.019 1.941-.453l.995-1.356a.55.55 0 00.117-.371zm8.41 1.793a.405.405 0 00-.013-.096c-.126-.939-2.04-1.675-4.048-1.277-.884.176-1.236 1.211-1.25 1.942a.07.07 0 000 .024v.025c.008.11.048.215.116.302.319.437 1.186.64 1.941.456l2.351-.574c.569-.146.909-.467.904-.802zM55.616 75.82c-1.02 0-1.923 1.596-1.923 3.416 0 1.82 1.373 4.531 3.37 4.531 1.996 0 1.183-7.947-1.448-7.947z" fill="#09073B" stroke="#09073B" stroke-width=".667" stroke-linecap="round" stroke-linejoin="round"/><path d="M64.203 78.978l7.135-4.119-7.135-4.119-7.134 4.119 7.134 4.119z" fill="#175CFF" stroke="#09073B" stroke-width=".667" stroke-linecap="round" stroke-linejoin="round"/><path d="M66.582 77.605l2.378-1.373-7.134-4.119-2.378 1.373 7.134 4.119z" fill="#fff" stroke="#09073B" stroke-width=".667" stroke-linecap="round" stroke-linejoin="round"/><path d="M57.07 83.097l7.133 4.119v-8.238l-7.134-4.12v8.239zm14.268 0l-7.135 4.119v-8.238l7.135-4.12v8.239z" fill="#175CFF"/><path d="M64.203 87.216l-7.134-4.12V74.86l7.134 4.119m0 8.238v-8.238m0 8.238l7.135-4.12V74.86l-7.135 4.119" stroke="#09073B" stroke-width=".667" stroke-linecap="round" stroke-linejoin="round"/><path d="M68.96 80.35l-2.378 1.374v-4.12l2.378-1.372v4.119z" fill="#fff" stroke="#09073B" stroke-width=".667" stroke-linecap="round" stroke-linejoin="round"/><path clip-rule="evenodd" d="M64.203 70.74l-7.134 4.119v8.238l7.134 4.119 7.135-4.119v-8.238l-7.135-4.119z" stroke="#09073B" stroke-width=".667" stroke-linecap="round" stroke-linejoin="round"/><path d="M58.748 93.02c1.125.978 2.69 3.516 2.69 3.516s.915 5.549 1.003 5.934c.107.453.55.664 1.043.664.607 0 .893-.274.956-.804.041-.354.09-4.424.239-6.297a5.464 5.464 0 00-.17-1.85c-.44-1.648-1.346-4.987-1.58-5.457-.463-.93-.724-1.546-1.287-1.955-.912-.662-2.9-1.373-4.745-1.373-1.61 0-3.048.906-3.048 1.897 0 2.472 1.647 14.554 1.576 14.131a.77.77 0 00.804.599c.415 0 1.036-.093 1.123-.681.157-1.046 1.396-8.323 1.396-8.323zm0 0c-.22-.095-.742-.252-.742-.252l.742.253z" fill="#175CFF"/><path d="M58.748 93.02c1.125.978 2.69 3.516 2.69 3.516s.915 5.549 1.003 5.934c.107.453.55.664 1.043.664.607 0 .893-.274.956-.804.041-.354.09-4.424.239-6.297a5.464 5.464 0 00-.17-1.85c-.44-1.648-1.346-4.987-1.58-5.457-.463-.93-.724-1.546-1.287-1.955-.912-.662-2.9-1.373-4.745-1.373-1.61 0-3.048.906-3.048 1.897 0 2.472 1.647 14.554 1.576 14.131a.77.77 0 00.804.599c.415 0 1.036-.093 1.123-.681.157-1.046 1.396-8.323 1.396-8.323zm0 0c-.22-.095-.742-.252-.742-.252" stroke="#09073B" stroke-width=".667" stroke-linecap="round" stroke-linejoin="round"/><path d="M62.93 87.837c0-2.944-.992-8.159-.992-8.159a.746.746 0 00-.324-.55l-5.322-3.077a.768.768 0 00-.854.093c-1.595 1.288-2.037 6.758-2.037 11.187 0 1.78 2.109 3.326 4.451 3.326 2.944 0 5.078-.745 5.078-2.82z" fill="#09073B" stroke="#09073B" stroke-width=".667" stroke-linecap="round" stroke-linejoin="round"/><path d="M58.234 69.831a2.62 2.62 0 00-2.62 2.62v2.361c0 .657.247 1.289.692 1.772v.936a.75.75 0 00.445.618 2.367 2.367 0 002.14 0 .753.753 0 00.441-.618v-.332a2.62 2.62 0 001.519-2.376v-2.361a2.62 2.62 0 00-2.617-2.62z" fill="#fff" stroke="#09073B" stroke-width=".667" stroke-linecap="round" stroke-linejoin="round"/><path d="M60.197 72.626s1.923-.848 2.422-1.296c.5-.447-.549-1.12-1.21-1.342a4.669 4.669 0 00-3.263 0c-.558.182-1.1.406-1.626.67l3.677 1.968z" fill="#175CFF" stroke="#09073B" stroke-width=".667" stroke-linecap="round" stroke-linejoin="round"/><path d="M55.587 72.19c-.646.637-.604 1.054-.626 1.647-.022.593 0 2.106 1.252 2.812 1.356.766 2.908-.442 2.908-1.537 0-.756.178-1.16.447-1.275.27-.115.215.55.215.55a.549.549 0 00.4-.525c0-.629-.214-2.197-.928-2.197-.714 0-2.081-1.04-3.668.525z" fill="#09073B"/><path d="M60.585 79.154c-1.178.494-1.074 2.677-.401 4.704.672 2.026 1.941 3.435 3.232 3.951 1.63.654 4.41-.936 4.355-2.653l-2.252 1.3s-1.433-4.17-1.947-5.067c-.574-.997-1.543-2.84-2.987-2.235z" fill="#09073B" stroke="#09073B" stroke-width=".667" stroke-linecap="round" stroke-linejoin="round"/><path d="M60.84 71.174l-.703-1.302a1.526 1.526 0 00-1.099-.774l-1.36-.212a1.616 1.616 0 00-1.347.41l-1.071.988a1.033 1.033 0 00-.324.868l.101.944c.044.39.374.75.983.986a5.128 5.128 0 004.174-.456c.676-.447.887-.922.646-1.452z" fill="#175CFF" stroke="#09073B" stroke-width=".667" stroke-linecap="round" stroke-linejoin="round"/></g><defs><clipPath id="a"><path fill="#fff" transform="translate(.333)" d="M0 0H346.667V121H0z"/></clipPath></defs></svg>