<svg width="348" height="121" fill="none" xmlns="http://www.w3.org/2000/svg"><g clip-path="url(#a)"><path d="M146.165 70.329c0-.73-.528-1.492-1.563-2.092L77.225 29.34c-1.894-1.094-4.757-1.212-6.397-.266L2.534 68.5c-.743.428-1.103 1.003-1.103 1.606v5.714c0 .726.529 1.491 1.563 2.089l67.374 38.899c1.895 1.095 4.757 1.212 6.397.266l68.286-39.428c.743-.429 1.103-1.003 1.106-1.603l.008-5.715z" fill="#E5E5E5"/><path d="M78.745 30.217L4.514 73.074v5.683m79.18-45.683L9.462 75.931v5.715m79.18-45.715L14.411 78.79v5.677m79.18-45.677L19.359 81.645v5.714m79.18-45.714L24.308 84.503v5.714m79.18-45.714L29.259 87.36v5.714m79.177-45.714L34.208 90.217v5.714m79.177-45.714L39.157 93.074v5.715m79.177-45.715L44.105 95.931v5.715m79.177-45.715L49.054 98.79v5.714m79.177-45.715l-74.229 42.858v5.745m79.177-45.745l-74.228 42.857v5.754m79.177-45.754L63.899 107.36v5.714m79.18-45.714l-74.231 42.857v5.754" stroke="#fff" stroke-width=".667" stroke-linecap="round" stroke-linejoin="round"/><path d="M68.848 30.217l74.231 42.857v5.715m-79.18-45.715l74.229 42.857v5.715M58.951 35.93l74.228 42.858v5.714M54.002 38.788l74.229 42.858v5.714M49.054 41.646l74.228 42.857v5.714M44.105 44.503l74.229 42.857v5.717M39.156 47.36l74.229 42.857v5.714m-79.18-45.714l74.231 42.857V98.8M29.259 53.074l74.229 42.857v5.715m-79.18-45.715L98.539 98.79v5.717M19.36 58.788l74.232 42.858v5.745M14.41 61.646l74.231 42.857v5.754M9.462 64.503l74.232 42.857v5.714M4.514 67.36l74.231 42.857v5.754" stroke="#fff" stroke-width=".667" stroke-linecap="round" stroke-linejoin="round"/><path clip-rule="evenodd" d="M145.057 71.928l-68.286 39.429c-1.64.946-4.503.829-6.397-.266L3 72.197C1.103 71.103.897 69.451 2.534 68.5L70.82 29.07c1.64-.946 4.503-.828 6.397.266l67.383 38.9c1.891 1.094 2.097 2.749.457 3.691z" stroke="#09073B" stroke-width=".667" stroke-linecap="round" stroke-linejoin="round"/><path d="M70.08 38.071V.928m76.085 69.4c0-.728-.528-1.491-1.563-2.091L77.225 29.34c-1.894-1.094-4.757-1.212-6.397-.266L2.534 68.5c-.743.428-1.103 1.003-1.103 1.606v5.714c0 .726.529 1.491 1.563 2.089l67.374 38.899c1.895 1.095 4.757 1.212 6.397.266l68.286-39.428c.743-.429 1.103-1.003 1.106-1.603l.008-5.715z" stroke="#09073B" stroke-width=".667" stroke-linecap="round" stroke-linejoin="round"/><path d="M92.348 48.071L70.079 35.214l-12.371 7.143 22.269 12.857 12.371-7.143z" fill="#fff" stroke="#09073B" stroke-width=".667" stroke-linecap="round" stroke-linejoin="round"/><path d="M70.08 38.071l-7.423-4.285L70.08 29.5l7.422 4.286-7.422 4.285z" fill="#175CFF" stroke="#09073B" stroke-width=".667" stroke-linecap="round" stroke-linejoin="round"/><path d="M67.605 36.643l-2.474-1.429 7.423-4.285 2.474 1.428-7.423 4.286z" fill="#fff" stroke="#09073B" stroke-width=".667" stroke-linecap="round" stroke-linejoin="round"/><path d="M77.502 42.357l-7.422 4.286V38.07l7.422-4.285v8.571zm-14.845 0l7.423 4.286V38.07l-7.423-4.285v8.571z" fill="#175CFF"/><path d="M70.08 46.643l7.422-4.286v-8.571L70.08 38.07m0 8.572V38.07m0 8.572l-7.423-4.286v-8.571l7.423 4.285" stroke="#09073B" stroke-width=".667" stroke-linecap="round" stroke-linejoin="round"/><path d="M65.13 39.5l2.475 1.428v-4.285l-2.474-1.429V39.5z" fill="#fff" stroke="#09073B" stroke-width=".667" stroke-linecap="round" stroke-linejoin="round"/><path clip-rule="evenodd" d="M77.502 33.786L70.08 29.5l-7.423 4.286v8.571l7.423 4.286 7.422-4.286v-8.571z" stroke="#09073B" stroke-width=".667" stroke-linecap="round" stroke-linejoin="round"/><path d="M79.977 43.785L72.554 39.5l7.423-4.286 7.422 4.286-7.422 4.285z" fill="#175CFF" stroke="#09073B" stroke-width=".667" stroke-linecap="round" stroke-linejoin="round"/><path d="M77.503 42.357l-2.475-1.428 7.423-4.286 2.475 1.428-7.423 4.286z" fill="#fff" stroke="#09073B" stroke-width=".667" stroke-linecap="round" stroke-linejoin="round"/><path d="M87.4 48.071l-7.423 4.286v-8.571l7.422-4.286v8.571zM72.554 48.071l7.423 4.286v-8.571L72.554 39.5v8.571z" fill="#175CFF" stroke="#09073B" stroke-width=".667" stroke-linecap="round" stroke-linejoin="round"/><path d="M75.028 45.214l2.475 1.429v-4.286l-2.475-1.428v4.285z" fill="#fff" stroke="#09073B" stroke-width=".667" stroke-linecap="round" stroke-linejoin="round"/><path clip-rule="evenodd" d="M87.4 39.5l-7.423-4.286-7.423 4.286v8.571l7.423 4.286 7.422-4.286V39.5z" stroke="#09073B" stroke-width=".667" stroke-linecap="round" stroke-linejoin="round"/><path d="M92.348 36.643L70.079 23.786l-12.371 7.142 22.269 12.858 12.371-7.143z" fill="#fff" stroke="#09073B" stroke-width=".667" stroke-linecap="round" stroke-linejoin="round"/><path d="M70.08 26.643l-7.423-4.286 7.423-4.286 7.422 4.286-7.422 4.286z" fill="#175CFF" stroke="#09073B" stroke-width=".667" stroke-linecap="round" stroke-linejoin="round"/><path d="M67.605 25.214l-2.474-1.428 7.423-4.286 2.474 1.429-7.423 4.285z" fill="#fff" stroke="#09073B" stroke-width=".667" stroke-linecap="round" stroke-linejoin="round"/><path d="M77.502 30.929l-7.422 4.285v-8.571l7.422-4.286v8.572zm-14.845 0l7.423 4.285v-8.571l-7.423-4.286v8.572z" fill="#175CFF"/><path d="M70.08 35.214l7.422-4.285v-8.572l-7.422 4.286m0 8.571v-8.571m0 8.571l-7.423-4.285v-8.572l7.423 4.286" stroke="#09073B" stroke-width=".667" stroke-linecap="round" stroke-linejoin="round"/><path d="M65.13 28.071l2.475 1.429v-4.286l-2.474-1.428v4.285z" fill="#fff" stroke="#09073B" stroke-width=".667" stroke-linecap="round" stroke-linejoin="round"/><path clip-rule="evenodd" d="M77.502 22.357l-7.422-4.286-7.423 4.286v8.571l7.423 4.286 7.422-4.286v-8.571z" stroke="#09073B" stroke-width=".667" stroke-linecap="round" stroke-linejoin="round"/><path d="M79.977 32.357l7.422-4.286-7.422-4.285-7.423 4.285 7.423 4.286z" fill="#175CFF" stroke="#09073B" stroke-width=".667" stroke-linecap="round" stroke-linejoin="round"/><path d="M82.451 30.928l2.475-1.428-7.423-4.286-2.475 1.429 7.423 4.285z" fill="#fff" stroke="#09073B" stroke-width=".667" stroke-linecap="round" stroke-linejoin="round"/><path d="M72.554 36.643l7.423 4.285v-8.571l-7.423-4.286v8.572zM87.4 36.643l-7.423 4.285v-8.571l7.422-4.286v8.572z" fill="#175CFF" stroke="#09073B" stroke-width=".667" stroke-linecap="round" stroke-linejoin="round"/><path d="M84.925 33.786l-2.474 1.428V30.93l2.475-1.429v4.286z" fill="#fff" stroke="#09073B" stroke-width=".667" stroke-linecap="round" stroke-linejoin="round"/><path clip-rule="evenodd" d="M72.554 28.071l7.423-4.285 7.422 4.285v8.572l-7.422 4.285-7.423-4.285V28.07z" stroke="#09073B" stroke-width=".667" stroke-linecap="round" stroke-linejoin="round"/><path d="M92.348 25.214L70.079 12.357 57.708 19.5l22.269 12.857 12.371-7.143z" fill="#fff" stroke="#09073B" stroke-width=".667" stroke-linecap="round" stroke-linejoin="round"/><path d="M57.708 45.214V8.071m34.64 42.857V13.786" stroke="#09073B" stroke-width=".667" stroke-linecap="round" stroke-linejoin="round"/><path d="M70.08 15.214l7.422-4.286-7.422-4.285-7.423 4.285 7.423 4.286z" fill="#175CFF" stroke="#09073B" stroke-width=".667" stroke-linecap="round" stroke-linejoin="round"/><path d="M72.554 13.786l2.474-1.429-7.423-4.286L65.131 9.5l7.423 4.286z" fill="#fff" stroke="#09073B" stroke-width=".667" stroke-linecap="round" stroke-linejoin="round"/><path d="M62.657 19.5l7.423 4.286v-8.572l-7.423-4.286V19.5zm14.845 0l-7.422 4.286v-8.572l7.422-4.286V19.5z" fill="#175CFF"/><path d="M70.08 23.786L62.657 19.5v-8.572l7.423 4.286m0 8.572v-8.572m0 8.572l7.422-4.286v-8.572l-7.422 4.286" stroke="#09073B" stroke-width=".667" stroke-linecap="round" stroke-linejoin="round"/><path d="M75.028 16.643l-2.474 1.428v-4.285l2.474-1.429v4.286z" fill="#fff" stroke="#09073B" stroke-width=".667" stroke-linecap="round" stroke-linejoin="round"/><path clip-rule="evenodd" d="M62.657 10.928l7.423-4.285 7.422 4.285V19.5l-7.422 4.286-7.423-4.286v-8.572z" stroke="#09073B" stroke-width=".667" stroke-linecap="round" stroke-linejoin="round"/><path d="M79.977 20.929l-7.423-4.286 7.423-4.286 7.422 4.286-7.422 4.286z" fill="#175CFF" stroke="#09073B" stroke-width=".667" stroke-linecap="round" stroke-linejoin="round"/><path d="M77.503 19.5l-2.475-1.429 7.423-4.285 2.475 1.428-7.423 4.286z" fill="#fff" stroke="#09073B" stroke-width=".667" stroke-linecap="round" stroke-linejoin="round"/><path d="M87.4 25.214L79.976 29.5v-8.572l7.422-4.285v8.571z" fill="#175CFF" stroke="#09073B" stroke-width=".667" stroke-linecap="round" stroke-linejoin="round"/><path d="M72.554 25.214l7.423 4.286v-8.572l-7.423-4.285v8.571z" fill="#175CFF" stroke="#09073B" stroke-width=".667" stroke-linecap="round" stroke-linejoin="round"/><path d="M75.028 22.357l2.475 1.429V19.5l-2.475-1.429v4.286z" fill="#fff" stroke="#09073B" stroke-width=".667" stroke-linecap="round" stroke-linejoin="round"/><path clip-rule="evenodd" d="M87.4 16.643l-7.423-4.286-7.423 4.286v8.571l7.423 4.286 7.422-4.286v-8.571z" stroke="#09073B" stroke-width=".667" stroke-linecap="round" stroke-linejoin="round"/><path d="M92.348 13.786L70.079.928 57.708 8.071l22.269 12.857 12.371-7.142z" fill="#fff" stroke="#09073B" stroke-width=".667" stroke-linecap="round" stroke-linejoin="round"/><path d="M79.977 9.5l-7.423-4.286L79.977.928l7.422 4.286L79.977 9.5z" fill="#175CFF" stroke="#09073B" stroke-width=".667" stroke-linecap="round" stroke-linejoin="round"/><path d="M77.503 8.071l-2.475-1.428 7.423-4.286 2.475 1.429-7.423 4.285z" fill="#fff" stroke="#09073B" stroke-width=".667" stroke-linecap="round" stroke-linejoin="round"/><path d="M87.4 13.786l-7.423 4.285V9.5l7.422-4.286v8.572zM72.554 13.786l7.423 4.285V9.5l-7.423-4.286v8.572z" fill="#175CFF" stroke="#09073B" stroke-width=".667" stroke-linecap="round" stroke-linejoin="round"/><path d="M75.028 10.928l2.475 1.43V8.07l-2.475-1.428v4.285z" fill="#fff" stroke="#09073B" stroke-width=".667" stroke-linecap="round" stroke-linejoin="round"/><path d="M79.977 58.071V20.93m27.228 35.72V42.362M87.399 5.214L79.977.928l-7.423 4.286v8.572l7.423 4.285 7.422-4.285V5.214z" stroke="#09073B" stroke-width=".667" stroke-linecap="round" stroke-linejoin="round"/><path d="M129.477 66.648l-22.272-12.857-12.371 7.143 22.269 12.857 12.374-7.143z" fill="#fff" stroke="#09073B" stroke-width=".667" stroke-linecap="round" stroke-linejoin="round"/><path d="M117.102 62.363l7.423-4.286-17.32-10-7.423 4.286 17.32 10z" fill="#175CFF" stroke="#09073B" stroke-width=".667" stroke-linecap="round" stroke-linejoin="round"/><path d="M119.577 60.934l2.474-1.428-17.32-10-2.474 1.428 17.32 10z" fill="#fff" stroke="#09073B" stroke-width=".667" stroke-linecap="round" stroke-linejoin="round"/><path d="M99.782 60.934l17.32 10v-8.571l-17.32-10v8.571zM124.525 66.649l-7.422 4.285v-8.571l7.422-4.286v8.572z" fill="#175CFF" stroke="#09073B" stroke-width=".667" stroke-linecap="round" stroke-linejoin="round"/><path d="M122.051 63.791l-2.474 1.429v-4.286l2.474-1.428v4.285z" fill="#fff" stroke="#09073B" stroke-width=".667" stroke-linecap="round" stroke-linejoin="round"/><path clip-rule="evenodd" d="M107.205 48.077l-7.423 4.286v8.571l17.32 10 7.423-4.285v-8.572l-17.32-10z" stroke="#09073B" stroke-width=".667" stroke-linecap="round" stroke-linejoin="round"/><path d="M129.477 55.22l-22.272-12.857-12.371 7.143 22.269 12.857 12.374-7.143z" fill="#fff" stroke="#09073B" stroke-width=".667" stroke-linecap="round" stroke-linejoin="round"/><path d="M94.834 63.791V38.076m34.64 31.43V55.22m-12.371 21.428V62.363m-9.898-20V30.934" stroke="#09073B" stroke-width=".667" stroke-linecap="round" stroke-linejoin="round"/><path d="M107.194 45.214l-7.423-4.285 7.423-4.286 7.423 4.285-7.423 4.286z" fill="#175CFF" stroke="#09073B" stroke-width=".667" stroke-linecap="round" stroke-linejoin="round"/><path d="M104.719 43.786l-2.474-1.429 7.423-4.286 2.474 1.429-7.423 4.286z" fill="#fff" stroke="#09073B" stroke-width=".667" stroke-linecap="round" stroke-linejoin="round"/><path d="M114.617 49.5l-7.423 4.286v-8.572l7.423-4.285v8.57zm-14.846 0l7.423 4.286v-8.572l-7.423-4.285v8.57z" fill="#175CFF"/><path d="M107.194 53.786l7.423-4.286v-8.572l-7.423 4.286m0 8.572v-8.572m0 8.572L99.771 49.5v-8.572l7.423 4.286" stroke="#09073B" stroke-width=".667" stroke-linecap="round" stroke-linejoin="round"/><path d="M102.245 46.643l2.474 1.428v-4.285l-2.474-1.429v4.286z" fill="#fff" stroke="#09073B" stroke-width=".667" stroke-linecap="round" stroke-linejoin="round"/><path clip-rule="evenodd" d="M114.617 40.928l-7.423-4.285-7.423 4.285V49.5l7.423 4.286 7.423-4.286v-8.572z" stroke="#09073B" stroke-width=".667" stroke-linecap="round" stroke-linejoin="round"/><path d="M117.103 50.929l-7.423-4.286 7.423-4.286 7.422 4.286-7.422 4.286z" fill="#175CFF" stroke="#09073B" stroke-width=".667" stroke-linecap="round" stroke-linejoin="round"/><path d="M114.629 49.5l-2.475-1.429 7.423-4.285 2.474 1.428-7.422 4.286z" fill="#fff" stroke="#09073B" stroke-width=".667" stroke-linecap="round" stroke-linejoin="round"/><path d="M124.525 55.214l-7.422 4.286v-8.572l7.422-4.285v8.571zM109.68 55.214l7.423 4.286v-8.572l-7.423-4.285v8.571z" fill="#175CFF" stroke="#09073B" stroke-width=".667" stroke-linecap="round" stroke-linejoin="round"/><path d="M112.154 52.357l2.475 1.429V49.5l-2.475-1.429v4.286z" fill="#fff" stroke="#09073B" stroke-width=".667" stroke-linecap="round" stroke-linejoin="round"/><path clip-rule="evenodd" d="M124.525 46.643l-7.422-4.286-7.423 4.286v8.571l7.423 4.286 7.422-4.286v-8.571z" stroke="#09073B" stroke-width=".667" stroke-linecap="round" stroke-linejoin="round"/><path d="M129.477 43.791l-22.272-12.857-12.371 7.143 22.269 12.857 12.374-7.143z" fill="#fff" stroke="#09073B" stroke-width=".667" stroke-linecap="round" stroke-linejoin="round"/><path d="M129.474 55.22V43.79m-12.371 18.572V50.928" stroke="#09073B" stroke-width=".667" stroke-linecap="round" stroke-linejoin="round"/><path d="M107.205 33.791l7.423-4.285-7.423-4.286-7.423 4.286 7.423 4.285z" fill="#175CFF" stroke="#09073B" stroke-width=".667" stroke-linecap="round" stroke-linejoin="round"/><path d="M109.68 32.363l2.474-1.429-7.423-4.286-2.474 1.429 7.423 4.286z" fill="#fff" stroke="#09073B" stroke-width=".667" stroke-linecap="round" stroke-linejoin="round"/><path d="M99.782 38.077l7.423 4.286V33.79l-7.423-4.285v8.571zM114.628 38.077l-7.423 4.286V33.79l7.423-4.285v8.571z" fill="#175CFF" stroke="#09073B" stroke-width=".667" stroke-linecap="round" stroke-linejoin="round"/><path d="M112.154 35.22l-2.474 1.428v-4.285l2.474-1.429v4.286z" fill="#fff" stroke="#09073B" stroke-width=".667" stroke-linecap="round" stroke-linejoin="round"/><path clip-rule="evenodd" d="M99.782 29.506l7.423-4.286 7.423 4.286v8.571l-7.423 4.286-7.423-4.286v-8.571z" stroke="#09073B" stroke-width=".667" stroke-linecap="round" stroke-linejoin="round"/><path d="M117.103 39.505l-7.423-4.285 7.423-4.286 7.422 4.286-7.422 4.285z" fill="#175CFF" stroke="#09073B" stroke-width=".667" stroke-linecap="round" stroke-linejoin="round"/><path d="M114.629 38.077l-2.475-1.428 7.423-4.286 2.474 1.428-7.422 4.286z" fill="#fff" stroke="#09073B" stroke-width=".667" stroke-linecap="round" stroke-linejoin="round"/><path d="M124.525 43.791l-7.422 4.286v-8.571l7.422-4.286v8.571zM109.68 43.791l7.423 4.286v-8.571l-7.423-4.286v8.571z" fill="#175CFF" stroke="#09073B" stroke-width=".667" stroke-linecap="round" stroke-linejoin="round"/><path d="M112.154 40.934l2.475 1.429v-4.286l-2.475-1.429v4.286z" fill="#fff" stroke="#09073B" stroke-width=".667" stroke-linecap="round" stroke-linejoin="round"/><path clip-rule="evenodd" d="M124.525 35.22l-7.422-4.286-7.423 4.286v8.571l7.423 4.286 7.422-4.286V35.22z" stroke="#09073B" stroke-width=".667" stroke-linecap="round" stroke-linejoin="round"/><path d="M40.388 59.083c.966 0 1.749-.453 1.749-1.012 0-.558-.783-1.011-1.749-1.011-.965 0-1.748.453-1.748 1.011 0 .559.782 1.012 1.748 1.012zM52.76 51.94c.965 0 1.748-.453 1.748-1.012 0-.558-.783-1.011-1.748-1.011-.966 0-1.749.453-1.749 1.011 0 .559.783 1.012 1.749 1.012z" fill="#09073B" stroke="#09073B" stroke-width=".667" stroke-linecap="round" stroke-linejoin="round"/><path d="M40.388 50.928l12.372-7.142M40.388 43.786V57.5" stroke="#09073B" stroke-width=".667" stroke-linecap="round" stroke-linejoin="round"/><path d="M40.388 43.786V57.5" stroke="#B2B2B2" stroke-width=".667" stroke-linecap="round" stroke-linejoin="round"/><path d="M52.76 36.643v13.714" stroke="#09073B" stroke-width=".667" stroke-linecap="round" stroke-linejoin="round"/><path d="M52.76 36.643v13.714" stroke="#B2B2B2" stroke-width=".667" stroke-linecap="round" stroke-linejoin="round"/><path d="M67.61 74.8c.967 0 1.75-.453 1.75-1.011 0-.56-.783-1.012-1.75-1.012-.965 0-1.748.453-1.748 1.011 0 .56.783 1.012 1.749 1.012zM79.983 67.657c.965 0 1.748-.453 1.748-1.011 0-.559-.783-1.012-1.748-1.012-.966 0-1.75.453-1.75 1.012 0 .558.784 1.011 1.75 1.011z" fill="#09073B" stroke="#09073B" stroke-width=".667" stroke-linecap="round" stroke-linejoin="round"/><path d="M67.611 66.645l12.372-7.142M67.611 59.503v13.714" stroke="#09073B" stroke-width=".667" stroke-linecap="round" stroke-linejoin="round"/><path d="M67.611 59.503v13.714" stroke="#B2B2B2" stroke-width=".667" stroke-linecap="round" stroke-linejoin="round"/><path d="M79.982 52.36v13.714" stroke="#09073B" stroke-width=".667" stroke-linecap="round" stroke-linejoin="round"/><path d="M79.982 52.36v13.714" stroke="#B2B2B2" stroke-width=".667" stroke-linecap="round" stroke-linejoin="round"/><path d="M94.834 90.517c.966 0 1.749-.453 1.749-1.011 0-.559-.783-1.012-1.749-1.012-.966 0-1.749.453-1.749 1.012 0 .558.783 1.011 1.749 1.011zM107.206 83.374c.965 0 1.748-.453 1.748-1.011 0-.559-.783-1.012-1.748-1.012-.966 0-1.749.453-1.749 1.012 0 .558.783 1.011 1.749 1.011z" fill="#09073B" stroke="#09073B" stroke-width=".667" stroke-linecap="round" stroke-linejoin="round"/><path d="M94.834 82.363l12.371-7.143M94.834 75.22v13.714" stroke="#09073B" stroke-width=".667" stroke-linecap="round" stroke-linejoin="round"/><path d="M94.834 75.22v13.714" stroke="#B2B2B2" stroke-width=".667" stroke-linecap="round" stroke-linejoin="round"/><path d="M107.205 68.077v13.714" stroke="#09073B" stroke-width=".667" stroke-linecap="round" stroke-linejoin="round"/><path d="M107.205 68.077v13.714" stroke="#B2B2B2" stroke-width=".667" stroke-linecap="round" stroke-linejoin="round"/><path d="M114.623 107.657c.965 0 1.748-.453 1.748-1.011 0-.559-.783-1.012-1.748-1.012-.966 0-1.749.453-1.749 1.012 0 .558.783 1.011 1.749 1.011zM126.994 100.514c.965 0 1.748-.453 1.748-1.011 0-.559-.783-1.011-1.748-1.011-.966 0-1.749.452-1.749 1.01 0 .559.783 1.012 1.749 1.012z" fill="#09073B" stroke="#09073B" stroke-width=".667" stroke-linecap="round" stroke-linejoin="round"/><path d="M114.623 92.12v13.954" stroke="#09073B" stroke-width=".667" stroke-linecap="round" stroke-linejoin="round"/><path d="M114.623 92.12v13.954" stroke="#B2B2B2" stroke-width=".667" stroke-linecap="round" stroke-linejoin="round"/><path d="M126.994 84.977v13.954" stroke="#09073B" stroke-width=".667" stroke-linecap="round" stroke-linejoin="round"/><path d="M126.994 84.977v13.954" stroke="#B2B2B2" stroke-width=".667" stroke-linecap="round" stroke-linejoin="round"/><path d="M124.514 106.643l-15.331-19.917c-2.918-3.789-6.286-6.858-9.715-8.835l-68.98-39.82 12.375-7.142 68.968 39.82c3.429 1.985 6.806 5.045 9.714 8.834L136.88 99.5l-12.366 7.143z" fill="#E5E5E5" stroke="#09073B" stroke-width=".667" stroke-linecap="round" stroke-linejoin="round"/><path d="M122.865 77.928c-3.311-4.305-7.128-7.771-11.034-10.025L42.862 28.07v2.857l68.969 39.82c3.428 1.986 6.806 5.046 9.714 8.835L136.879 99.5l1.312-1.666-15.326-19.906z" fill="#fff" stroke="#09073B" stroke-width=".667" stroke-linecap="round" stroke-linejoin="round"/><path d="M45.337 32.357L32.962 39.5" stroke="#B2B2B2" stroke-width=".667" stroke-linecap="round" stroke-linejoin="round"/><path d="M34.82 38.428l8.66-5" stroke="#09073B" stroke-width=".667" stroke-linecap="round" stroke-linejoin="round"/><path d="M47.81 33.786l-12.37 7.142" stroke="#B2B2B2" stroke-width=".667" stroke-linecap="round" stroke-linejoin="round"/><path d="M37.294 39.857l8.66-5" stroke="#09073B" stroke-width=".667" stroke-linecap="round" stroke-linejoin="round"/><path d="M50.285 35.214l-12.37 7.143" stroke="#B2B2B2" stroke-width=".667" stroke-linecap="round" stroke-linejoin="round"/><path d="M39.769 41.286l8.66-5" stroke="#09073B" stroke-width=".667" stroke-linecap="round" stroke-linejoin="round"/><path d="M52.76 36.643l-12.372 7.143" stroke="#B2B2B2" stroke-width=".667" stroke-linecap="round" stroke-linejoin="round"/><path d="M42.243 42.714l8.66-5" stroke="#09073B" stroke-width=".667" stroke-linecap="round" stroke-linejoin="round"/><path d="M55.234 38.071l-12.372 7.143" stroke="#B2B2B2" stroke-width=".667" stroke-linecap="round" stroke-linejoin="round"/><path d="M44.717 44.143l8.66-5" stroke="#09073B" stroke-width=".667" stroke-linecap="round" stroke-linejoin="round"/><path d="M57.708 39.5l-12.371 7.143" stroke="#B2B2B2" stroke-width=".667" stroke-linecap="round" stroke-linejoin="round"/><path d="M47.191 45.571l8.66-5" stroke="#09073B" stroke-width=".667" stroke-linecap="round" stroke-linejoin="round"/><path d="M60.182 40.928l-12.371 7.143" stroke="#B2B2B2" stroke-width=".667" stroke-linecap="round" stroke-linejoin="round"/><path d="M49.666 47l8.66-5" stroke="#09073B" stroke-width=".667" stroke-linecap="round" stroke-linejoin="round"/><path d="M62.657 42.357L50.285 49.5" stroke="#B2B2B2" stroke-width=".667" stroke-linecap="round" stroke-linejoin="round"/><path d="M52.14 48.428l8.66-5" stroke="#09073B" stroke-width=".667" stroke-linecap="round" stroke-linejoin="round"/><path d="M65.131 43.786L52.76 50.928" stroke="#B2B2B2" stroke-width=".667" stroke-linecap="round" stroke-linejoin="round"/><path d="M54.614 49.857l8.66-5" stroke="#09073B" stroke-width=".667" stroke-linecap="round" stroke-linejoin="round"/><path d="M67.605 45.214l-12.371 7.143" stroke="#B2B2B2" stroke-width=".667" stroke-linecap="round" stroke-linejoin="round"/><path d="M57.088 51.286l8.66-5" stroke="#09073B" stroke-width=".667" stroke-linecap="round" stroke-linejoin="round"/><path d="M70.08 46.643l-12.372 7.143" stroke="#B2B2B2" stroke-width=".667" stroke-linecap="round" stroke-linejoin="round"/><path d="M59.563 52.714l8.66-5" stroke="#09073B" stroke-width=".667" stroke-linecap="round" stroke-linejoin="round"/><path d="M72.554 48.071l-12.371 7.143" stroke="#B2B2B2" stroke-width=".667" stroke-linecap="round" stroke-linejoin="round"/><path d="M62.037 54.143l8.66-5" stroke="#09073B" stroke-width=".667" stroke-linecap="round" stroke-linejoin="round"/><path d="M75.028 49.5l-12.371 7.143" stroke="#B2B2B2" stroke-width=".667" stroke-linecap="round" stroke-linejoin="round"/><path d="M64.511 55.571l8.66-5" stroke="#09073B" stroke-width=".667" stroke-linecap="round" stroke-linejoin="round"/><path d="M77.502 50.928l-12.371 7.143" stroke="#B2B2B2" stroke-width=".667" stroke-linecap="round" stroke-linejoin="round"/><path d="M66.985 57l8.66-5" stroke="#09073B" stroke-width=".667" stroke-linecap="round" stroke-linejoin="round"/><path d="M79.977 52.357L67.606 59.5" stroke="#B2B2B2" stroke-width=".667" stroke-linecap="round" stroke-linejoin="round"/><path d="M69.46 58.428l8.66-5" stroke="#09073B" stroke-width=".667" stroke-linecap="round" stroke-linejoin="round"/><path d="M82.451 53.786L70.08 60.928" stroke="#B2B2B2" stroke-width=".667" stroke-linecap="round" stroke-linejoin="round"/><path d="M71.934 59.857l8.66-5" stroke="#09073B" stroke-width=".667" stroke-linecap="round" stroke-linejoin="round"/><path d="M84.925 55.214l-12.371 7.143" stroke="#B2B2B2" stroke-width=".667" stroke-linecap="round" stroke-linejoin="round"/><path d="M74.408 61.286l8.66-5" stroke="#09073B" stroke-width=".667" stroke-linecap="round" stroke-linejoin="round"/><path d="M87.4 56.643l-12.372 7.143" stroke="#B2B2B2" stroke-width=".667" stroke-linecap="round" stroke-linejoin="round"/><path d="M76.883 62.714l8.66-5" stroke="#09073B" stroke-width=".667" stroke-linecap="round" stroke-linejoin="round"/><path d="M89.874 58.071l-12.372 7.143" stroke="#B2B2B2" stroke-width=".667" stroke-linecap="round" stroke-linejoin="round"/><path d="M79.357 64.143l8.663-5" stroke="#09073B" stroke-width=".667" stroke-linecap="round" stroke-linejoin="round"/><path d="M92.348 59.5l-12.371 7.143" stroke="#B2B2B2" stroke-width=".667" stroke-linecap="round" stroke-linejoin="round"/><path d="M81.831 65.571l8.663-5" stroke="#09073B" stroke-width=".667" stroke-linecap="round" stroke-linejoin="round"/><path d="M94.823 60.928L82.45 68.072" stroke="#B2B2B2" stroke-width=".667" stroke-linecap="round" stroke-linejoin="round"/><path d="M84.308 67l8.66-5" stroke="#09073B" stroke-width=".667" stroke-linecap="round" stroke-linejoin="round"/><path d="M97.297 62.357L84.925 69.5" stroke="#B2B2B2" stroke-width=".667" stroke-linecap="round" stroke-linejoin="round"/><path d="M86.782 68.428l8.66-5" stroke="#09073B" stroke-width=".667" stroke-linecap="round" stroke-linejoin="round"/><path d="M99.77 63.786L87.4 70.928" stroke="#B2B2B2" stroke-width=".667" stroke-linecap="round" stroke-linejoin="round"/><path d="M89.257 69.857l8.66-5" stroke="#09073B" stroke-width=".667" stroke-linecap="round" stroke-linejoin="round"/><path d="M102.245 65.214l-12.371 7.143" stroke="#B2B2B2" stroke-width=".667" stroke-linecap="round" stroke-linejoin="round"/><path d="M91.731 71.286l8.66-5" stroke="#09073B" stroke-width=".667" stroke-linecap="round" stroke-linejoin="round"/><path d="M104.72 66.643l-12.372 7.143" stroke="#B2B2B2" stroke-width=".667" stroke-linecap="round" stroke-linejoin="round"/><path d="M94.205 72.714l8.66-5" stroke="#09073B" stroke-width=".667" stroke-linecap="round" stroke-linejoin="round"/><path d="M135.108 97.191l-12.371 7.143" stroke="#B2B2B2" stroke-width=".667" stroke-linecap="round" stroke-linejoin="round"/><path d="M124.594 103.263l8.66-5" stroke="#09073B" stroke-width=".667" stroke-linecap="round" stroke-linejoin="round"/><path d="M133.331 94.883l-12.371 7.143" stroke="#B2B2B2" stroke-width=".667" stroke-linecap="round" stroke-linejoin="round"/><path d="M122.817 100.954l8.66-5" stroke="#09073B" stroke-width=".667" stroke-linecap="round" stroke-linejoin="round"/><path d="M131.554 92.574l-12.371 7.143" stroke="#B2B2B2" stroke-width=".667" stroke-linecap="round" stroke-linejoin="round"/><path d="M121.04 98.646l8.66-5" stroke="#09073B" stroke-width=".667" stroke-linecap="round" stroke-linejoin="round"/><path d="M129.777 90.263l-12.372 7.143" stroke="#B2B2B2" stroke-width=".667" stroke-linecap="round" stroke-linejoin="round"/><path d="M119.263 96.334l8.66-5" stroke="#09073B" stroke-width=".667" stroke-linecap="round" stroke-linejoin="round"/><path d="M127.999 87.954l-12.371 7.143" stroke="#B2B2B2" stroke-width=".667" stroke-linecap="round" stroke-linejoin="round"/><path d="M117.482 94.026l8.66-5" stroke="#09073B" stroke-width=".667" stroke-linecap="round" stroke-linejoin="round"/><path d="M126.222 85.646l-12.371 7.143" stroke="#B2B2B2" stroke-width=".667" stroke-linecap="round" stroke-linejoin="round"/><path d="M115.705 91.717l8.66-5" stroke="#09073B" stroke-width=".667" stroke-linecap="round" stroke-linejoin="round"/><path d="M124.446 83.337l-12.372 7.143" stroke="#B2B2B2" stroke-width=".667" stroke-linecap="round" stroke-linejoin="round"/><path d="M113.928 89.408l8.66-5" stroke="#09073B" stroke-width=".667" stroke-linecap="round" stroke-linejoin="round"/><path d="M122.668 81.029l-12.371 7.142" stroke="#B2B2B2" stroke-width=".667" stroke-linecap="round" stroke-linejoin="round"/><path d="M112.151 87.1l8.66-5" stroke="#09073B" stroke-width=".667" stroke-linecap="round" stroke-linejoin="round"/><path d="M120.826 78.66l-12.372 7.143" stroke="#B2B2B2" stroke-width=".667" stroke-linecap="round" stroke-linejoin="round"/><path d="M110.308 84.731l8.66-5" stroke="#09073B" stroke-width=".667" stroke-linecap="round" stroke-linejoin="round"/><path d="M118.791 76.351l-12.371 7.143" stroke="#B2B2B2" stroke-width=".667" stroke-linecap="round" stroke-linejoin="round"/><path d="M108.274 82.423l8.663-5" stroke="#09073B" stroke-width=".667" stroke-linecap="round" stroke-linejoin="round"/><path d="M116.66 74.283l-12.372 7.143" stroke="#B2B2B2" stroke-width=".667" stroke-linecap="round" stroke-linejoin="round"/><path d="M106.143 80.354l8.662-5" stroke="#09073B" stroke-width=".667" stroke-linecap="round" stroke-linejoin="round"/><path d="M114.454 72.48l-12.371 7.143" stroke="#B2B2B2" stroke-width=".667" stroke-linecap="round" stroke-linejoin="round"/><path d="M103.939 78.551l8.66-5" stroke="#09073B" stroke-width=".667" stroke-linecap="round" stroke-linejoin="round"/><path d="M112.2 70.966l-12.372 7.142" stroke="#B2B2B2" stroke-width=".667" stroke-linecap="round" stroke-linejoin="round"/><path d="M101.686 77.037l8.66-5" stroke="#09073B" stroke-width=".667" stroke-linecap="round" stroke-linejoin="round"/><path d="M109.717 69.529L97.346 76.67" stroke="#B2B2B2" stroke-width=".667" stroke-linecap="round" stroke-linejoin="round"/><path d="M99.203 75.6l8.66-5" stroke="#09073B" stroke-width=".667" stroke-linecap="round" stroke-linejoin="round"/><path d="M107.194 68.071l-12.372 7.143" stroke="#B2B2B2" stroke-width=".667" stroke-linecap="round" stroke-linejoin="round"/><path d="M96.68 74.143l8.66-5" stroke="#09073B" stroke-width=".667" stroke-linecap="round" stroke-linejoin="round"/><path d="M92.337 62.363l7.423-4.286-7.423-4.286-7.423 4.286 7.423 4.286z" fill="#175CFF" stroke="#09073B" stroke-width=".667" stroke-linecap="round" stroke-linejoin="round"/><path d="M94.811 60.934l2.474-1.428-7.422-4.286-2.475 1.428 7.423 4.286z" fill="#fff" stroke="#09073B" stroke-width=".667" stroke-linecap="round" stroke-linejoin="round"/><path d="M84.914 66.649l7.423 4.285v-8.571l-7.423-4.286v8.572zm14.846 0l-7.423 4.285v-8.571l7.423-4.286v8.572z" fill="#175CFF"/><path d="M92.337 70.934l-7.423-4.285v-8.572l7.423 4.286m0 8.571v-8.571m0 8.571l7.423-4.285v-8.572l-7.423 4.286" stroke="#09073B" stroke-width=".667" stroke-linecap="round" stroke-linejoin="round"/><path d="M97.285 63.791l-2.474 1.429v-4.286l2.474-1.428v4.285z" fill="#fff" stroke="#09073B" stroke-width=".667" stroke-linecap="round" stroke-linejoin="round"/><path clip-rule="evenodd" d="M84.914 58.077l7.423-4.286 7.423 4.286v8.571l-7.423 4.286-7.423-4.286v-8.571z" stroke="#09073B" stroke-width=".667" stroke-linecap="round" stroke-linejoin="round"/><path d="M110.494 85.071c-3.314-4.305-7.143-7.771-11.034-10.025L30.488 35.214v2.857l68.972 39.82c3.428 1.986 6.805 5.046 9.714 8.834l15.34 19.918 1.311-1.666-15.331-19.906z" fill="#fff" stroke="#09073B" stroke-width=".667" stroke-linecap="round" stroke-linejoin="round"/><path d="M30.488 63.786V49.5" stroke="#09073B" stroke-width=".667" stroke-linecap="round" stroke-linejoin="round"/><path d="M52.76 73.786L30.49 60.928l-12.374 7.143L40.388 80.93l12.372-7.143z" fill="#fff" stroke="#09073B" stroke-width=".667" stroke-linecap="round" stroke-linejoin="round"/><path d="M40.388 69.5l7.423-4.286-17.32-10-7.426 4.286 17.323 10z" fill="#175CFF" stroke="#09073B" stroke-width=".667" stroke-linecap="round" stroke-linejoin="round"/><path d="M42.862 68.071l2.475-1.428-17.32-10-2.477 1.428 17.322 10z" fill="#fff" stroke="#09073B" stroke-width=".667" stroke-linecap="round" stroke-linejoin="round"/><path d="M23.065 68.071l17.323 10V69.5l-17.323-10v8.571zm24.746 5.715l-7.423 4.285V69.5l7.423-4.286v8.572z" fill="#175CFF"/><path d="M40.388 78.071l-17.323-10V59.5l17.323 10m0 8.571V69.5m0 8.571l7.423-4.285v-8.572L40.388 69.5" stroke="#09073B" stroke-width=".667" stroke-linecap="round" stroke-linejoin="round"/><path d="M45.337 70.928l-2.475 1.43V68.07l2.475-1.428v4.285z" fill="#fff" stroke="#09073B" stroke-width=".667" stroke-linecap="round" stroke-linejoin="round"/><path clip-rule="evenodd" d="M30.491 55.214L23.065 59.5v8.571l17.323 10 7.423-4.285v-8.572l-17.32-10z" stroke="#09073B" stroke-width=".667" stroke-linecap="round" stroke-linejoin="round"/><path d="M52.76 62.357L30.49 49.5l-12.374 7.143L40.388 69.5l12.372-7.143z" fill="#fff" stroke="#09073B" stroke-width=".667" stroke-linecap="round" stroke-linejoin="round"/><path d="M30.491 52.357l-7.426-4.286 7.426-4.285 7.423 4.285-7.423 4.286z" fill="#175CFF" stroke="#09073B" stroke-width=".667" stroke-linecap="round" stroke-linejoin="round"/><path d="M28.017 50.928L25.54 49.5l7.425-4.286 2.472 1.429-7.42 4.285z" fill="#fff" stroke="#09073B" stroke-width=".667" stroke-linecap="round" stroke-linejoin="round"/><path d="M37.914 56.643l-7.423 4.285v-8.571l7.423-4.286v8.572zM23.065 56.643l7.426 4.285v-8.571l-7.426-4.286v8.572z" fill="#175CFF" stroke="#09073B" stroke-width=".667" stroke-linecap="round" stroke-linejoin="round"/><path d="M25.54 53.786l2.477 1.428V50.93L25.54 49.5v4.286z" fill="#fff" stroke="#09073B" stroke-width=".667" stroke-linecap="round" stroke-linejoin="round"/><path clip-rule="evenodd" d="M37.914 48.071l-7.423-4.285-7.426 4.285v8.572l7.426 4.285 7.423-4.285V48.07z" stroke="#09073B" stroke-width=".667" stroke-linecap="round" stroke-linejoin="round"/><path d="M40.388 46.643l-7.423-4.286 7.423-4.286 7.423 4.286-7.423 4.286z" fill="#175CFF" stroke="#09073B" stroke-width=".667" stroke-linecap="round" stroke-linejoin="round"/><path d="M37.914 45.214l-2.474-1.428 7.422-4.286 2.475 1.429-7.423 4.285z" fill="#fff" stroke="#09073B" stroke-width=".667" stroke-linecap="round" stroke-linejoin="round"/><path d="M47.811 62.357l-7.423 4.286v-20l7.423-4.286v20zm-14.846 0l7.423 4.286v-20l-7.423-4.286v20z" fill="#175CFF"/><path d="M40.388 66.643l7.423-4.286v-20l-7.423 4.286m0 20v-20m0 20l-7.423-4.286v-20l7.423 4.286" stroke="#09073B" stroke-width=".667" stroke-linecap="round" stroke-linejoin="round"/><path d="M35.44 48.071l2.474 1.429v-4.286l-2.474-1.428v4.285z" fill="#fff" stroke="#09073B" stroke-width=".667" stroke-linecap="round" stroke-linejoin="round"/><path d="M18.117 70.928V56.643m34.642 20V62.357M40.39 83.786V69.5m7.422-27.143l-7.423-4.286-7.423 4.286v20l7.423 4.286 7.423-4.286v-20z" stroke="#09073B" stroke-width=".667" stroke-linecap="round" stroke-linejoin="round"/><path d="M49.286 21.5l5.94-3.429V9.5l-5.94 3.429c-.82.474-1.483 1.742-1.483 2.837v4.611c.008 1.094.671 1.597 1.483 1.123z" fill="#175CFF" stroke="#09073B" stroke-width=".667" stroke-linecap="round" stroke-linejoin="round"/><path d="M53 15.071a1.913 1.913 0 00.857-1.502c0-.55-.38-.783-.857-.498l-.858.495v4.005l.858-.5a1.904 1.904 0 00.857-1.503c0-.55-.38-.782-.857-.497zm0 0l-.858.498m-2.965.717a1.902 1.902 0 01.857-1.495c.477-.285.857-.054.857.498a1.902 1.902 0 01-.857 1.494c.477-.286.857-.052.857.5a1.906 1.906 0 01-.857 1.494c-.477.286-.857.051-.857-.497" stroke="#fff" stroke-width=".667" stroke-linecap="round" stroke-linejoin="round"/><path d="M57.708 8.071L55.234 9.5m2.474 7.143l-2.474 1.428" stroke="#09073B" stroke-width=".667" stroke-linecap="round" stroke-linejoin="round"/><path d="M67.737 64.483c1.25 0 2.914 2.285 3.505 3.88.249-.395 1.272-2.017 2.174-1.189.572.534.55 1.946.186 2.829-.363.882-1.303 1.574-2.106 1.574-1.428 0-2.777-1.36-4.39-4.123-.964-1.631-.635-2.971.63-2.971zm-2.352 27.254c0-1.303 1.054-1.777 2-1.591.946.185 3.143 1.111 3.143 2a.49.49 0 01-.043.194c-.183.388-.874.62-1.546.514l-2.617-.403c-.571-.088-.943-.388-.934-.714h-.003zm-5.103 2.92c0-.911.417-1.774 1.097-1.774 1.089 0 2.112 1.734 2.126 3.303.017.328-.357.634-.934.722-.672.106-1.363-.125-1.543-.514l-.703-1.509a.43.43 0 01-.04-.225l-.003-.003z" fill="#09073B" stroke="#09073B" stroke-width=".667" stroke-linecap="round" stroke-linejoin="round"/><path d="M65.066 81.166s-.486.168-.55.528c-.522 2.903-1.82 11.012-1.982 11.715-.108.474-.571.691-1.083.691-.631 0-.643-.286-.708-.837-.129-1.109-.675-14.389-.675-15.963 0-1.08.429-1.8 1.015-2.226.948-.688 3.017-1.428 4.937-1.428 1.674 0 3.171.945 3.171 1.974 0 2.572-1.714 15.157-1.64 14.706a.797.797 0 01-.837.603c-.431 0-.843-.129-.871-.535-.072-1.091-.778-9.228-.778-9.228zm0 0c.23-.1.774-.263.774-.263l-.775.263z" fill="#175CFF"/><path d="M65.066 81.166s-.486.168-.55.528c-.522 2.903-1.82 11.012-1.982 11.715-.108.474-.571.691-1.083.691-.631 0-.643-.286-.708-.837-.129-1.109-.675-14.389-.675-15.963 0-1.08.429-1.8 1.015-2.226.948-.688 3.017-1.428 4.937-1.428 1.674 0 3.171.945 3.171 1.974 0 2.572-1.714 15.157-1.64 14.706a.797.797 0 01-.837.603c-.431 0-.843-.129-.871-.535-.072-1.091-.778-9.228-.778-9.228zm0 0c.23-.1.774-.263.774-.263" stroke="#09073B" stroke-width=".667" stroke-linecap="round" stroke-linejoin="round"/><path d="M59.743 76.174c0-3.063 1.031-8.488 1.031-8.488a.762.762 0 01.337-.572l5.532-3.191a.902.902 0 01.888.1 2.696 2.696 0 011.229 1.897s.891 8.234.891 9.74c0 1.851-2.194 3.46-4.631 3.46-3.057-.011-5.277-.786-5.277-2.946z" fill="#09073B" stroke="#09073B" stroke-width=".667" stroke-linecap="round" stroke-linejoin="round"/><path d="M71.102 64.786l1.623-.403a.194.194 0 01.192.04l.34.363a.266.266 0 01.034.26l-1.143 3.942a.72.72 0 01-.446.463l-1.62.403a.192.192 0 01-.191-.04l-.343-.354a.265.265 0 01-.031-.26l1.142-3.943a.716.716 0 01.443-.471z" fill="#fff" stroke="#09073B" stroke-width=".667" stroke-linecap="round" stroke-linejoin="round"/><path d="M72.588 67.466c-.341.25-.75.39-1.174.402-.62.066-.788.858-.391 1.358.397.5.983.585 1.797.154.886-.472 1.02-1.309.8-1.803a1.19 1.19 0 00-.84-.777l-.192.666zM62.357 79.6c-.111-.232-2.634-5.289-2.634-5.289a.331.331 0 00-.029-.054c-.343-.657-1.06-.96-1.603-.677-.543.283-.706 1.046-.363 1.714l.032.054 2.834 4.963a1.094 1.094 0 102.103.332 3.355 3.355 0 00-.34-1.043z" fill="#fff" stroke="#09073B" stroke-width=".667" stroke-linecap="round" stroke-linejoin="round"/><path d="M60.763 67.32c-.76.52-3.057 5.2-3.4 6.051a2.322 2.322 0 00.034 2c.334.64 2.229 3.769 2.66 4.369.329.454 1.054.437 1.554.206.606-.286.803-.786.623-1.24-.626-1.56-2.166-4.398-2.166-4.398s1.595-1.697 2.286-3.085a4.123 4.123 0 00.372-2.572c-.129-.802-.886-2.068-1.963-1.331z" fill="#09073B" stroke="#09073B" stroke-width=".667" stroke-linecap="round" stroke-linejoin="round"/><path d="M63.754 65.294c-.663.466-.6 1.035-.115 1.429.98.803 2.729 1.877 3.312 4.037.074-4.134.114-4.669-.386-5.254" stroke="#175CFF" stroke-width=".667" stroke-linecap="round" stroke-linejoin="round"/><path d="M62.76 61.071a2.75 2.75 0 015.31-1.078c.134.343.196.71.184 1.078v2.477a2.748 2.748 0 01-1.669 2.526.94.94 0 01-.391.386 2.463 2.463 0 01-2.243 0 .789.789 0 01-.466-.646v-.408a2.737 2.737 0 01-.725-1.858v-2.477z" fill="#fff" stroke="#09073B" stroke-width=".667" stroke-linecap="round" stroke-linejoin="round"/><path d="M67.814 63.788c.323 0 .511-.111.511-.391 0-.494-.591-.923-.591-.923" fill="#fff"/><path d="M67.814 63.788c.323 0 .511-.111.511-.391 0-.494-.591-.923-.591-.923" stroke="#09073B" stroke-width=".667" stroke-linecap="round" stroke-linejoin="round"/><path d="M67 71.577a5.133 5.133 0 00-.046-.814" stroke="#175CFF" stroke-width=".667" stroke-linecap="round" stroke-linejoin="round"/><path d="M65.128 57.643c1.563 0 1.669 2.96 1.36 2.96a.857.857 0 01-.528-.183.611.611 0 01-.589.443h-.043v.043a.617.617 0 01-.528.608.363.363 0 010 .057.427.427 0 01-.217.372.286.286 0 01-.037.417.213.213 0 01.034.114.208.208 0 01-.39.097.206.206 0 01.01-.211.287.287 0 01-.04-.417.414.414 0 01-.192-.232c-.131-.228-.24-.445-.534-.445a.623.623 0 00-.517.628c0 .397.126.626.126.883s-.095.42-.286.42a3.24 3.24 0 01-.357-2.737c.406-1.406 1.171-2.817 2.728-2.817z" fill="#fff" stroke="#09073B" stroke-width=".667" stroke-linecap="round" stroke-linejoin="round"/><path d="M68.36 59.029l-.72-1.352a1.588 1.588 0 00-1.143-.809l-1.415-.22a1.683 1.683 0 00-1.402.429l-1.115 1.029a1.07 1.07 0 00-.337.902l.106.98c.045.409.388.78 1.023 1.026a5.339 5.339 0 004.34-.471c.697-.466.917-.96.662-1.514z" fill="#175CFF" stroke="#09073B" stroke-width=".667" stroke-linecap="round" stroke-linejoin="round"/><path d="M64.788 61.357c-.146-.094-.22-.263-.103-.394a6.702 6.702 0 011.966-1.512c.831-.443 1.591-.451 1.911-.32.32.132 1.26.383 1.595.546.142.069.045.209-.072.246a2.63 2.63 0 00-1.143.445c-.423.281-.816.606-1.171.969-.412.366-.634.491-1.249.4-.614-.091-1.448-.203-1.734-.38z" fill="#175CFF" stroke="#09073B" stroke-width=".667" stroke-linecap="round" stroke-linejoin="round"/><path d="M66.96 73.928l1.211-.417a.285.285 0 00.18-.285l-.354-2.106a.177.177 0 00-.248-.14l-1.175.437a.286.286 0 00-.18.286l.314 2.083a.184.184 0 00.17.156.182.182 0 00.082-.013z" fill="#fff"/><path clip-rule="evenodd" d="M66.96 73.928l1.211-.417a.285.285 0 00.18-.285l-.354-2.106a.177.177 0 00-.248-.14l-1.175.437a.286.286 0 00-.18.286l.314 2.083a.184.184 0 00.17.156.182.182 0 00.082-.013z" stroke="#09073B" stroke-width=".667" stroke-linecap="round" stroke-linejoin="round"/><path d="M61.766 77.643l-1.698-3.34s1.9-1.86 2.286-3.086" stroke="#175CFF" stroke-width=".667" stroke-linecap="round" stroke-linejoin="round"/><path d="M16.263 72.854l2.717-1.568a.663.663 0 01.994.571v1.009c0 .506-.166.998-.471 1.402l-3.24 4.3" stroke="#09073B" stroke-width=".667" stroke-linecap="round" stroke-linejoin="round"/><path d="M18.737 99.997l-2.474 1.429V78.568l2.474-1.428v22.857z" fill="#B2B2B2" stroke="#09073B" stroke-width=".667" stroke-linecap="round" stroke-linejoin="round"/><path d="M13.788 74.283L10.9 75.95a1.648 1.648 0 00-.822 1.429v.763a1.445 1.445 0 001.2 1.428l2.511.432" stroke="#09073B" stroke-width=".667" stroke-linecap="round" stroke-linejoin="round"/><path d="M13.79 74.284l2.474-1.429 2.474 4.286-2.474 1.428-2.475-4.285zm2.473 27.142l-2.474-1.429V74.283l2.474 4.285v22.858z" fill="#B2B2B2" stroke="#09073B" stroke-width=".667" stroke-linecap="round" stroke-linejoin="round"/><path d="M14.405 96.783l6.186-3.572 3.094 1.072v2.857l-12.371 7.143v-2.857l3.091-4.643z" fill="#fff" stroke="#09073B" stroke-width=".667" stroke-linecap="round" stroke-linejoin="round"/><path d="M16.262 104.283l19.795 12.857-2.474 1.428-19.795-12.857 2.474-1.428zm9.898-5.715l19.794 12.858-2.474 1.428-19.795-12.857 2.475-1.429zm-12.372 7.143l19.795 12.857v1.429l-19.795-11.429-2.474-4.285 2.474 1.428z" fill="#175CFF"/><path d="M33.583 118.568l2.474-1.428-19.795-12.857-2.474 1.428m19.795 12.857l-19.795-12.857m19.795 12.857v1.429l-19.795-11.429-2.474-4.285 2.474 1.428m12.372-7.143l19.794 12.858-2.474 1.428-19.795-12.857 2.475-1.429z" stroke="#09073B" stroke-width=".667" stroke-linecap="round" stroke-linejoin="round"/><path d="M30.746 119.37c.484-.279.485-1.183.002-2.02-.483-.836-1.267-1.288-1.75-1.008-.484.279-.485 1.183-.002 2.02.483.836 1.266 1.288 1.75 1.008zM13.908 109.848c.728-.418.73-1.78.005-3.041-.726-1.262-1.903-1.946-2.63-1.527-.728.418-.73 1.779-.005 3.041s1.902 1.946 2.63 1.527z" fill="#fff" stroke="#09073B" stroke-width=".667" stroke-linecap="round" stroke-linejoin="round"/><path d="M23.685 99.997l19.795 12.857v1.429l-22.27-12.857 2.475-1.429z" fill="#175CFF" stroke="#09073B" stroke-width=".667" stroke-linecap="round" stroke-linejoin="round"/><path d="M40.797 114.107c.486-.28.488-1.187.006-2.027-.483-.84-1.269-1.295-1.755-1.016-.486.279-.488 1.187-.005 2.027.483.84 1.268 1.295 1.754 1.016zM23.847 104.111c.728-.418.73-1.78.005-3.041-.726-1.262-1.903-1.946-2.63-1.528-.728.418-.73 1.78-.005 3.042.725 1.261 1.902 1.945 2.63 1.527z" fill="#fff" stroke="#09073B" stroke-width=".667" stroke-linecap="round" stroke-linejoin="round"/><path d="M16.88 98.211l6.186-3.571 3.094 1.071v2.858l-12.371 7.142v-2.857l3.091-4.643zm9.28-2.5l-2.474-1.428-3.095-1.072 2.475 1.429 3.094 1.071z" fill="#175CFF"/><path d="M23.066 94.64l-6.186 3.571-3.091 4.643v2.857l12.371-7.142V95.71m-3.094-1.071l3.094 1.071m-3.094-1.071l-2.475-1.429 3.095 1.072 2.474 1.428" stroke="#09073B" stroke-width=".667" stroke-linecap="round" stroke-linejoin="round"/><path d="M14.406 96.783l2.474 1.428 6.186-3.571-2.474-1.429-6.186 3.572zM11.314 101.426l2.474 1.428 3.092-4.643-2.475-1.428-3.091 4.643z" fill="#175CFF" stroke="#09073B" stroke-width=".667" stroke-linecap="round" stroke-linejoin="round"/><path d="M11.314 104.283l2.474 1.428v-2.857l-2.474-1.428v2.857zm34.64 8.571l-2.474 1.429v-1.429l2.474-1.428v1.428zm-9.897 5.714l-2.474 1.429v-1.429l2.474-1.428v1.428z" fill="#175CFF" stroke="#09073B" stroke-width=".667" stroke-linecap="round" stroke-linejoin="round"/></g><defs><clipPath id="a"><path fill="#fff" transform="translate(1)" d="M0 0H146V121H0z"/></clipPath></defs></svg>